<svg id="svg" version="1.1" xmlns="http://www.w3.org/2000/svg" xmlns:xlink="http://www.w3.org/1999/xlink" width="400" height="400" viewBox="0, 0, 400,400"><g id="svgg"><path id="path0" d="M186.400 30.424 C 179.135 30.716,163.361 32.441,161.000 33.202 C 160.340 33.415,158.811 33.775,157.601 34.003 C 154.617 34.565,141.569 38.580,138.600 39.850 C 132.517 42.453,122.896 47.202,122.334 47.879 C 122.096 48.166,121.732 48.400,121.524 48.400 C 121.317 48.400,120.574 48.833,119.873 49.362 C 119.173 49.891,117.430 51.003,116.000 51.832 C 110.458 55.048,99.663 64.691,94.708 70.853 C 88.877 78.103,87.568 79.904,86.165 82.600 C 85.364 84.140,84.484 85.670,84.211 86.000 C 82.286 88.322,80.008 93.292,76.876 102.000 C 69.434 122.693,70.105 143.782,78.949 167.082 C 83.117 178.064,93.721 193.690,102.800 202.228 C 106.040 205.275,109.694 208.400,110.018 208.400 C 111.412 208.400,112.127 211.352,112.431 218.372 C 112.599 222.265,112.947 226.606,113.204 228.020 C 113.460 229.434,113.921 232.123,114.228 233.996 C 115.137 239.536,115.794 242.379,117.097 246.400 C 117.773 248.490,118.826 251.910,119.437 254.000 C 120.646 258.142,122.112 261.382,125.919 268.326 C 129.276 274.451,129.066 276.242,124.903 276.974 C 124.077 277.120,122.320 277.585,121.000 278.008 C 110.860 281.258,92.281 281.777,84.229 279.035 C 71.844 274.816,62.475 265.399,56.635 251.300 C 56.066 249.925,55.150 247.742,54.600 246.450 C 54.050 245.157,53.600 243.925,53.600 243.712 C 53.600 241.288,52.268 241.463,38.000 245.766 C 37.010 246.065,35.437 246.516,34.504 246.769 C 33.296 247.097,32.744 247.485,32.588 248.115 C 32.370 248.990,34.902 256.918,37.214 262.600 C 37.840 264.140,39.001 267.081,39.793 269.135 C 40.586 271.189,41.652 273.532,42.163 274.341 C 42.674 275.151,44.047 277.790,45.214 280.206 C 47.861 285.688,51.242 291.089,58.779 301.880 C 66.013 312.236,76.793 323.404,90.459 334.700 C 93.047 336.839,93.816 337.394,98.400 340.438 C 99.830 341.388,102.707 343.297,104.793 344.682 C 106.880 346.067,108.748 347.200,108.945 347.200 C 109.142 347.200,110.585 348.064,112.152 349.121 C 113.718 350.178,115.990 351.508,117.200 352.078 C 118.410 352.648,121.693 354.213,124.495 355.557 C 127.298 356.901,129.701 358.000,129.835 358.000 C 129.969 358.000,130.646 358.262,131.340 358.582 C 132.033 358.902,133.320 359.425,134.200 359.743 C 135.080 360.062,137.060 360.796,138.600 361.375 C 143.221 363.112,151.109 365.477,156.000 366.592 C 158.530 367.169,162.130 367.993,164.000 368.424 C 165.870 368.855,168.300 369.309,169.400 369.434 C 170.500 369.559,173.650 370.026,176.400 370.472 C 183.208 371.577,207.843 371.697,215.400 370.662 C 218.040 370.300,222.122 369.752,224.470 369.444 C 226.819 369.136,228.930 368.767,229.163 368.623 C 229.395 368.479,231.254 368.019,233.293 367.599 C 241.587 365.894,242.425 365.646,259.000 359.991 C 260.320 359.540,261.760 359.012,262.200 358.818 C 263.916 358.058,269.472 355.462,270.800 354.798 C 271.570 354.414,273.370 353.533,274.800 352.841 C 276.230 352.150,277.740 351.390,278.155 351.154 C 278.570 350.918,279.482 350.403,280.181 350.011 C 282.926 348.469,289.122 344.545,291.400 342.906 C 292.720 341.956,294.779 340.534,295.975 339.747 C 308.018 331.814,326.719 313.301,334.911 301.200 C 335.730 299.990,337.527 297.380,338.903 295.400 C 343.521 288.758,346.584 283.395,351.809 272.800 C 353.662 269.042,359.297 254.477,359.779 252.200 C 359.918 251.540,360.637 249.020,361.377 246.600 C 362.116 244.180,363.109 240.310,363.582 238.000 C 364.056 235.690,364.705 232.676,365.026 231.302 C 365.565 228.989,366.332 223.004,367.216 214.200 C 367.792 208.476,367.670 190.006,367.026 185.400 C 366.719 183.200,366.353 179.960,366.214 178.200 C 366.074 176.440,365.687 173.650,365.354 172.000 C 363.167 161.173,361.974 156.272,360.484 152.000 C 360.139 151.010,359.722 149.570,359.557 148.800 C 359.393 148.030,358.818 146.230,358.280 144.800 C 357.741 143.370,356.808 140.850,356.205 139.200 C 355.602 137.550,354.667 135.210,354.126 134.000 C 353.586 132.790,352.789 130.990,352.356 130.000 C 351.922 129.010,351.282 127.660,350.933 127.000 C 350.584 126.340,349.061 123.404,347.547 120.475 C 346.034 117.547,343.842 113.677,342.677 111.875 C 341.511 110.074,340.121 107.880,339.587 107.000 C 339.053 106.120,337.209 103.536,335.490 101.258 C 333.771 98.980,331.788 96.263,331.082 95.220 C 327.584 90.047,315.063 77.031,307.172 70.365 C 302.360 66.299,300.171 64.539,299.600 64.276 C 299.270 64.124,298.190 63.383,297.200 62.629 C 295.215 61.117,288.869 56.717,288.214 56.398 C 287.986 56.288,286.810 55.550,285.600 54.760 C 284.390 53.969,282.914 53.070,282.319 52.761 C 280.690 51.915,276.827 49.793,274.800 48.632 C 273.810 48.064,272.370 47.327,271.600 46.993 C 270.830 46.659,269.660 46.125,269.000 45.806 C 268.340 45.488,266.810 44.847,265.600 44.382 C 264.390 43.918,262.860 43.296,262.200 43.002 C 255.822 40.153,249.095 37.947,237.200 34.806 C 235.330 34.313,232.987 33.669,231.993 33.377 C 228.503 32.349,218.908 31.156,209.600 30.592 C 199.513 29.980,197.769 29.968,186.400 30.424 M210.693 52.208 C 217.218 52.800,219.715 53.193,227.600 54.868 C 236.627 56.787,242.756 58.573,249.000 61.107 C 251.420 62.090,254.210 63.208,255.200 63.592 C 259.436 65.238,260.683 65.795,262.096 66.675 C 262.919 67.186,265.439 68.560,267.696 69.727 C 272.778 72.355,272.893 72.423,277.575 75.576 C 279.679 76.993,282.210 78.690,283.200 79.349 C 285.524 80.895,292.245 86.241,293.819 87.796 C 294.489 88.458,296.019 89.800,297.219 90.777 C 298.418 91.754,299.918 93.104,300.552 93.777 C 301.185 94.450,303.345 96.714,305.352 98.809 C 310.824 104.523,320.400 116.334,320.400 117.370 C 320.400 117.499,321.448 119.178,322.730 121.102 C 326.773 127.172,331.602 136.332,333.850 142.196 C 334.610 144.178,335.396 146.160,335.597 146.600 C 337.809 151.436,340.388 159.394,341.755 165.600 C 344.642 178.712,345.479 185.362,345.835 198.023 C 346.097 207.327,344.924 221.997,343.391 228.600 C 343.084 229.920,342.279 233.409,341.601 236.353 C 340.312 241.951,338.161 248.774,335.975 254.200 C 333.433 260.510,331.062 265.792,329.792 267.977 C 329.081 269.200,328.366 270.636,328.201 271.168 C 328.037 271.701,327.295 273.087,326.551 274.249 C 325.808 275.411,325.200 276.484,325.200 276.633 C 325.200 276.782,324.608 277.736,323.885 278.752 C 323.162 279.769,322.086 281.435,321.494 282.456 C 315.720 292.413,297.882 311.565,287.174 319.304 C 279.864 324.588,277.527 326.203,275.452 327.407 C 274.103 328.190,271.380 329.802,269.400 330.991 C 267.420 332.179,265.657 333.163,265.482 333.176 C 265.307 333.189,262.787 334.345,259.882 335.744 C 252.700 339.204,252.777 339.173,244.400 341.928 C 233.729 345.437,232.085 345.920,229.297 346.361 C 227.920 346.578,226.637 346.854,226.445 346.972 C 225.974 347.263,216.133 348.634,210.200 349.235 C 200.584 350.208,180.413 349.543,172.600 347.994 C 171.500 347.776,168.295 347.148,165.478 346.599 C 159.731 345.480,159.237 345.339,148.500 341.759 C 140.583 339.119,138.612 338.290,129.000 333.558 C 121.740 329.983,116.652 326.896,108.200 320.937 C 104.149 318.081,94.054 309.333,91.652 306.598 C 88.815 303.367,90.233 302.393,97.340 302.691 C 108.043 303.140,124.670 300.215,136.600 295.785 C 146.708 292.032,146.820 292.029,151.000 295.413 C 156.138 299.573,171.044 306.545,180.200 309.072 C 182.180 309.618,184.763 310.335,185.940 310.666 C 187.900 311.216,191.652 311.754,200.800 312.798 C 218.608 314.830,239.663 311.699,255.400 304.680 C 289.876 289.303,304.232 253.742,284.460 232.699 C 274.829 222.449,257.617 219.065,240.600 224.076 C 238.400 224.724,235.669 225.514,234.530 225.832 C 232.553 226.383,229.560 227.558,224.823 229.642 C 223.625 230.169,218.765 232.562,214.023 234.961 C 209.280 237.359,204.860 239.576,204.200 239.886 C 203.540 240.197,202.730 240.610,202.400 240.805 C 201.438 241.373,196.596 243.916,191.200 246.688 C 188.450 248.100,184.760 250.045,183.000 251.009 C 179.808 252.758,170.960 257.196,159.179 262.958 C 155.757 264.631,152.508 266.000,151.957 266.000 C 150.305 266.000,147.379 262.483,144.950 257.578 C 144.139 255.940,143.179 254.150,142.817 253.600 C 142.004 252.363,139.363 245.569,138.852 243.400 C 138.645 242.520,137.938 239.730,137.281 237.200 C 134.404 226.117,134.578 221.871,137.884 222.525 C 149.859 224.895,150.343 224.948,159.800 224.955 C 169.287 224.962,177.094 224.144,181.888 222.643 C 185.349 221.558,194.180 218.860,195.200 218.575 C 212.896 213.630,242.963 191.126,253.139 175.209 C 253.915 173.994,255.296 171.987,256.208 170.748 C 257.628 168.817,260.243 163.869,262.521 158.800 C 276.910 126.783,253.293 94.638,215.400 94.665 C 204.488 94.672,192.625 97.131,183.745 101.224 C 182.235 101.920,180.190 102.849,179.200 103.288 C 174.917 105.190,172.743 106.390,168.018 109.461 C 165.258 111.255,162.129 113.415,161.064 114.261 C 159.999 115.107,158.148 116.543,156.952 117.451 C 154.686 119.170,149.805 123.543,146.262 127.028 C 142.218 131.005,136.097 138.765,130.137 147.471 C 129.182 148.866,128.400 150.127,128.400 150.272 C 128.400 150.418,128.142 150.822,127.827 151.171 C 126.433 152.711,120.764 165.876,118.599 172.600 C 115.744 181.469,114.591 182.894,112.368 180.300 C 109.713 177.201,105.330 171.128,104.249 169.048 C 103.550 167.702,102.509 165.873,101.937 164.985 C 94.524 153.472,91.511 131.182,95.369 116.400 C 97.769 107.202,100.007 101.361,102.438 97.946 C 102.899 97.299,103.811 95.767,104.464 94.543 C 108.400 87.168,119.472 75.670,128.000 70.101 C 129.870 68.880,132.174 67.368,133.120 66.740 C 134.066 66.113,134.915 65.600,135.007 65.600 C 135.098 65.600,137.561 64.426,140.480 62.991 C 146.089 60.232,152.205 57.841,155.200 57.236 C 157.702 56.729,164.671 54.927,165.071 54.682 C 165.359 54.505,174.858 53.062,182.400 52.048 C 186.803 51.456,203.443 51.551,210.693 52.208 M222.800 117.004 C 233.127 119.357,241.898 125.956,244.193 133.101 C 248.800 147.442,231.945 173.445,209.000 187.397 C 207.240 188.467,205.530 189.560,205.200 189.826 C 199.156 194.697,179.190 201.699,167.825 202.934 C 155.494 204.273,137.809 201.317,135.453 197.523 C 132.586 192.904,145.115 161.932,154.105 151.418 C 155.037 150.327,156.422 148.617,157.181 147.618 C 161.010 142.580,171.769 132.862,177.400 129.355 C 179.380 128.122,181.720 126.633,182.600 126.045 C 183.480 125.457,186.360 124.021,189.000 122.855 C 191.640 121.689,194.160 120.576,194.600 120.381 C 201.851 117.176,216.077 115.472,222.800 117.004 M261.396 244.187 C 272.435 246.299,274.788 256.709,266.850 268.309 C 264.149 272.255,255.636 280.400,254.212 280.400 C 254.077 280.400,253.480 280.732,252.884 281.137 C 249.568 283.394,248.286 284.087,245.200 285.297 C 240.122 287.287,231.287 289.995,229.833 290.007 C 229.375 290.011,227.740 290.287,226.200 290.621 C 222.024 291.527,211.416 292.017,206.000 291.554 C 200.950 291.122,191.751 289.703,190.801 289.210 C 190.470 289.038,188.220 288.399,185.800 287.790 C 177.699 285.749,174.356 284.114,173.852 281.946 C 173.553 280.654,173.732 280.496,178.031 278.277 C 179.884 277.321,182.570 275.903,184.000 275.126 C 185.430 274.349,187.770 273.193,189.200 272.557 C 190.630 271.922,193.240 270.532,195.000 269.470 C 196.760 268.407,200.270 266.499,202.800 265.230 C 205.330 263.961,208.570 262.264,210.000 261.460 C 213.854 259.292,227.376 252.400,227.774 252.400 C 227.970 252.400,235.518 248.921,236.509 248.374 C 242.704 244.952,254.779 242.921,261.396 244.187 " stroke="none" fill="#f6a946" fill-rule="evenodd"></path><path id="path1" d="M0.000 200.000 L 0.000 400.000 200.000 400.000 L 400.000 400.000 400.000 200.000 L 400.000 0.000 200.000 0.000 L 0.000 0.000 0.000 200.000 M214.510 27.989 C 218.860 28.421,223.090 28.948,223.910 29.160 C 224.729 29.372,226.660 29.669,228.200 29.820 C 229.740 29.971,231.558 30.323,232.239 30.602 C 232.920 30.880,234.450 31.241,235.639 31.403 C 236.828 31.564,238.662 32.035,239.715 32.448 C 240.768 32.862,241.968 33.200,242.382 33.200 C 242.796 33.200,246.142 34.190,249.818 35.400 C 253.494 36.610,256.692 37.600,256.924 37.600 C 257.157 37.600,258.169 37.980,259.174 38.444 C 264.435 40.875,265.070 41.150,270.606 43.402 C 272.370 44.119,275.160 45.532,276.806 46.542 C 278.453 47.551,281.420 49.174,283.400 50.147 C 285.380 51.120,288.032 52.701,289.293 53.658 C 292.962 56.444,293.696 56.945,295.600 57.956 C 297.297 58.857,300.912 61.575,301.808 62.624 C 302.032 62.886,303.023 63.618,304.009 64.250 C 307.857 66.717,316.289 74.393,322.432 81.023 C 323.440 82.110,324.700 83.360,325.233 83.800 C 325.767 84.240,326.496 85.050,326.855 85.600 C 327.213 86.150,328.785 88.040,330.348 89.800 C 331.910 91.560,333.191 93.126,333.194 93.280 C 333.204 93.786,335.560 97.069,337.337 99.053 C 338.296 100.124,340.001 102.440,341.125 104.200 C 342.250 105.960,344.047 108.660,345.119 110.200 C 346.192 111.740,347.731 114.350,348.541 116.000 C 349.351 117.650,350.836 120.530,351.842 122.400 C 352.847 124.270,354.260 127.150,354.981 128.800 C 355.703 130.450,356.772 132.789,357.357 133.997 C 357.942 135.206,358.605 136.916,358.830 137.797 C 359.054 138.679,359.491 139.940,359.800 140.600 C 360.109 141.260,360.836 143.420,361.417 145.400 C 361.997 147.380,362.629 149.360,362.822 149.800 C 364.781 154.279,367.764 167.522,368.597 175.437 C 368.919 178.497,369.365 181.720,369.589 182.600 C 370.872 187.652,370.858 212.287,369.568 219.269 C 369.351 220.441,368.990 222.930,368.766 224.800 C 368.541 226.670,368.186 229.190,367.977 230.400 C 367.767 231.610,367.325 234.371,366.994 236.536 C 366.277 241.233,365.513 243.968,362.290 253.400 C 361.538 255.600,360.792 258.120,360.632 259.000 C 360.472 259.880,360.102 260.972,359.810 261.426 C 359.517 261.880,359.095 262.870,358.872 263.626 C 358.648 264.382,357.803 266.620,356.995 268.600 C 356.187 270.580,355.330 272.719,355.092 273.354 C 354.853 273.989,353.790 275.953,352.729 277.718 C 351.668 279.483,350.800 281.096,350.800 281.302 C 350.800 281.508,350.463 282.154,350.051 282.738 C 349.640 283.322,348.808 284.782,348.203 285.983 C 347.598 287.183,346.263 289.433,345.237 290.983 C 344.212 292.532,342.799 294.802,342.099 296.027 C 341.398 297.251,340.433 298.601,339.954 299.027 C 339.475 299.452,337.959 301.514,336.585 303.610 C 332.661 309.592,322.947 320.800,321.686 320.800 C 321.514 320.800,321.036 321.385,320.624 322.100 C 319.879 323.393,318.682 324.602,313.990 328.800 C 312.637 330.010,311.321 331.225,311.065 331.500 C 309.953 332.694,305.272 336.400,304.875 336.400 C 304.636 336.400,304.296 336.641,304.120 336.935 C 303.701 337.635,296.893 342.800,296.389 342.800 C 296.175 342.800,295.684 343.115,295.297 343.500 C 294.587 344.207,292.273 345.771,287.698 348.634 C 286.322 349.495,283.982 350.962,282.498 351.894 C 281.014 352.826,279.350 353.782,278.800 354.017 C 278.250 354.253,275.863 355.426,273.495 356.623 C 271.127 357.820,268.946 358.800,268.649 358.800 C 268.351 358.800,267.664 359.149,267.122 359.575 C 266.580 360.002,265.611 360.476,264.968 360.630 C 264.326 360.784,263.605 361.062,263.368 361.248 C 262.917 361.600,257.972 363.430,251.800 365.528 C 249.820 366.202,246.130 367.223,243.600 367.799 C 241.070 368.374,238.190 369.097,237.200 369.405 C 236.210 369.713,234.680 370.087,233.800 370.235 C 232.920 370.384,231.895 370.663,231.521 370.855 C 226.874 373.252,196.958 375.200,183.661 373.972 C 180.877 373.715,176.980 373.380,175.000 373.227 C 171.393 372.949,169.142 372.503,160.200 370.294 C 157.560 369.642,154.178 368.862,152.685 368.560 C 151.192 368.259,149.628 367.829,149.211 367.606 C 148.794 367.383,148.091 367.200,147.649 367.200 C 146.520 367.200,139.354 364.789,134.600 362.809 C 132.400 361.893,129.880 360.947,129.000 360.707 C 128.120 360.468,126.971 359.940,126.446 359.536 C 125.921 359.131,125.252 358.800,124.958 358.800 C 124.438 358.800,122.005 357.715,120.000 356.589 C 118.129 355.539,114.853 354.000,114.486 354.000 C 114.285 354.000,113.358 353.448,112.426 352.773 C 111.494 352.098,110.219 351.243,109.592 350.873 C 108.965 350.503,106.796 349.229,104.773 348.041 C 102.749 346.854,99.722 344.874,98.047 343.641 C 96.371 342.409,94.136 340.950,93.081 340.400 C 92.026 339.850,90.586 338.811,89.881 338.090 C 89.176 337.370,86.710 335.211,84.400 333.293 C 77.457 327.527,76.855 326.959,69.800 319.519 C 67.380 316.967,64.655 314.095,63.744 313.137 C 62.202 311.515,55.600 302.627,55.600 302.173 C 55.600 302.061,54.921 301.262,54.090 300.398 C 53.260 299.534,52.077 297.876,51.462 296.714 C 50.846 295.551,49.468 293.160,48.398 291.400 C 45.303 286.308,40.800 278.527,40.800 278.270 C 40.800 278.141,40.346 277.367,39.791 276.549 C 39.236 275.731,38.492 274.058,38.138 272.831 C 37.784 271.604,36.995 269.520,36.386 268.200 C 33.535 262.029,31.600 257.006,31.600 255.779 C 31.600 255.452,31.150 253.897,30.600 252.323 C 28.797 247.161,29.476 245.077,33.281 244.104 C 34.226 243.862,36.260 243.304,37.800 242.863 C 39.340 242.422,41.410 241.849,42.400 241.589 C 43.390 241.329,45.190 240.736,46.400 240.272 C 51.462 238.327,55.582 239.098,56.208 242.105 C 56.356 242.817,56.794 243.951,57.180 244.624 C 57.567 245.297,58.464 247.547,59.173 249.624 C 59.882 251.701,60.802 253.940,61.218 254.600 C 61.634 255.260,62.223 256.340,62.528 257.000 C 64.533 261.351,72.212 269.718,76.321 272.029 C 77.574 272.734,79.029 273.646,79.554 274.055 C 80.079 274.465,80.771 274.800,81.093 274.800 C 81.416 274.800,82.246 275.066,82.940 275.391 C 88.078 277.802,100.250 278.860,108.200 277.586 C 109.520 277.375,111.914 277.015,113.520 276.787 C 115.126 276.559,117.286 276.043,118.320 275.640 C 119.354 275.236,121.040 274.784,122.067 274.634 C 125.594 274.118,125.572 273.460,121.806 266.704 C 120.135 263.708,118.670 260.378,117.758 257.504 C 115.418 250.128,114.383 247.072,113.775 245.740 C 113.459 245.046,113.200 243.832,113.200 243.041 C 113.200 242.250,112.856 240.567,112.436 239.302 C 112.016 238.036,111.579 235.346,111.464 233.325 C 111.349 231.304,111.048 229.264,110.795 228.791 C 110.542 228.318,110.163 225.472,109.953 222.466 C 109.155 211.042,109.479 212.281,106.523 209.368 C 105.089 207.956,103.785 206.800,103.624 206.800 C 103.464 206.800,102.061 205.495,100.506 203.900 C 98.952 202.305,96.493 199.779,95.040 198.286 C 93.588 196.794,92.400 195.425,92.400 195.245 C 92.400 195.064,91.995 194.456,91.500 193.893 C 89.191 191.266,83.202 182.490,83.201 181.731 C 83.200 181.473,82.755 180.733,82.211 180.086 C 81.667 179.440,81.035 178.481,80.806 177.956 C 80.577 177.430,80.007 176.370,79.539 175.600 C 78.422 173.761,74.801 164.968,74.798 164.087 C 74.796 163.709,74.555 162.940,74.262 162.378 C 73.306 160.546,71.600 155.221,71.600 154.068 C 71.600 153.449,71.337 152.145,71.015 151.171 C 68.436 143.364,68.195 127.824,70.463 115.600 C 70.892 113.290,71.423 110.326,71.644 109.014 C 71.865 107.701,72.189 106.441,72.364 106.214 C 72.539 105.986,72.879 105.080,73.118 104.200 C 74.083 100.654,77.813 91.065,78.798 89.600 C 79.167 89.050,79.592 88.330,79.741 88.000 C 79.891 87.670,80.540 86.590,81.184 85.600 C 81.828 84.610,82.880 82.810,83.521 81.600 C 85.254 78.332,86.117 76.986,87.553 75.311 C 88.265 74.480,90.052 72.263,91.524 70.384 C 97.451 62.819,109.903 51.567,114.800 49.350 C 115.570 49.002,116.920 48.139,117.800 47.433 C 118.680 46.726,120.480 45.512,121.800 44.733 C 124.003 43.435,125.286 42.793,129.200 41.030 C 129.970 40.684,131.410 39.937,132.400 39.372 C 134.343 38.262,141.950 35.420,146.800 33.992 C 148.450 33.506,150.610 32.847,151.600 32.526 C 152.590 32.206,154.660 31.713,156.200 31.431 C 157.740 31.149,159.507 30.711,160.126 30.459 C 160.745 30.207,161.818 30.000,162.509 30.000 C 163.200 30.000,165.483 29.720,167.583 29.379 C 181.459 27.121,200.180 26.566,214.510 27.989 M187.600 54.811 C 183.310 54.962,179.325 55.279,178.745 55.516 C 178.165 55.752,176.005 56.135,173.945 56.365 C 171.885 56.595,169.390 56.952,168.400 57.156 C 159.860 58.923,154.993 60.086,154.008 60.596 C 153.365 60.928,152.606 61.201,152.320 61.202 C 152.034 61.204,151.317 61.457,150.727 61.765 C 150.137 62.073,149.057 62.447,148.327 62.596 C 146.568 62.955,136.480 68.004,133.649 69.941 C 131.184 71.628,129.917 72.400,129.613 72.400 C 128.030 72.400,114.336 85.029,111.869 88.764 C 111.248 89.705,110.101 91.153,109.320 91.981 C 107.306 94.121,102.074 103.912,100.654 108.200 C 100.290 109.300,99.233 113.170,98.305 116.800 L 96.617 123.400 96.647 132.400 C 96.673 140.515,96.760 141.636,97.527 143.800 C 97.995 145.120,98.725 147.640,99.148 149.400 C 100.143 153.537,101.757 158.382,103.345 162.000 C 103.490 162.330,103.922 163.078,104.304 163.661 C 104.687 164.245,105.707 165.955,106.572 167.461 C 110.602 174.482,114.072 177.862,114.620 175.300 C 114.749 174.695,115.207 173.451,115.638 172.535 C 116.069 171.619,116.846 169.459,117.364 167.735 C 117.883 166.011,118.618 163.880,118.998 163.000 C 121.838 156.425,124.218 151.653,125.982 149.000 C 126.859 147.680,127.582 146.439,127.589 146.241 C 127.595 146.044,128.195 145.144,128.922 144.241 C 129.649 143.339,130.758 141.700,131.387 140.600 C 132.565 138.540,136.631 133.577,141.202 128.621 C 142.632 127.070,144.262 125.260,144.823 124.600 C 145.733 123.529,147.676 121.684,152.049 117.740 C 152.817 117.048,154.065 116.053,154.823 115.530 C 155.580 115.007,156.830 113.991,157.600 113.273 C 158.370 112.555,159.810 111.497,160.800 110.921 C 161.790 110.346,163.410 109.220,164.400 108.421 C 165.390 107.621,166.650 106.749,167.200 106.482 C 168.569 105.819,172.380 103.673,173.600 102.880 C 175.034 101.946,181.538 98.800,182.034 98.800 C 182.264 98.800,183.295 98.468,184.326 98.061 C 186.887 97.051,192.565 95.355,200.400 93.257 C 203.901 92.319,214.056 91.085,215.800 91.385 C 216.460 91.498,218.890 91.668,221.200 91.763 C 225.299 91.930,230.871 93.191,233.696 94.591 C 234.299 94.890,235.352 95.258,236.037 95.408 C 238.005 95.840,247.160 100.087,248.520 101.198 C 248.784 101.414,250.178 102.538,251.619 103.695 C 256.100 107.297,260.746 111.869,261.400 113.320 C 261.620 113.808,262.473 115.211,263.295 116.438 C 271.051 128.007,271.513 146.840,264.401 161.500 C 260.035 170.499,259.288 171.899,257.846 173.777 C 256.992 174.889,256.089 175.980,255.841 176.200 C 255.592 176.420,255.082 177.050,254.706 177.600 C 252.344 181.057,251.156 182.630,249.213 184.874 C 246.935 187.505,243.321 191.193,241.600 192.642 C 241.050 193.105,239.968 194.185,239.195 195.042 C 237.799 196.591,228.562 204.007,225.436 206.090 C 224.536 206.689,223.530 207.365,223.200 207.591 C 218.318 210.935,205.776 217.611,201.226 219.286 C 200.002 219.737,198.820 220.241,198.600 220.406 C 198.380 220.572,197.300 220.900,196.200 221.136 C 195.100 221.372,193.487 221.933,192.615 222.382 C 191.744 222.832,190.760 223.200,190.429 223.200 C 190.098 223.200,189.101 223.450,188.213 223.756 C 187.326 224.061,185.700 224.493,184.600 224.715 C 183.500 224.937,181.610 225.405,180.400 225.755 C 172.477 228.047,153.012 228.496,144.321 226.588 C 142.848 226.265,140.888 226.000,139.966 226.000 L 138.290 226.000 138.553 228.908 C 138.698 230.508,139.184 233.253,139.634 235.008 C 140.083 236.764,140.707 239.427,141.022 240.927 C 141.336 242.427,141.864 244.042,142.196 244.516 C 142.528 244.990,142.801 245.653,142.802 245.989 C 142.804 246.325,143.054 247.078,143.359 247.661 C 143.663 248.245,144.135 249.415,144.407 250.261 C 144.679 251.108,145.141 252.076,145.434 252.414 C 145.728 252.751,146.427 254.067,146.989 255.337 C 147.951 257.512,149.175 259.504,150.291 260.709 C 150.561 261.001,150.933 261.509,151.118 261.839 C 151.694 262.868,152.934 262.624,157.236 260.637 C 163.458 257.763,164.776 257.200,165.279 257.200 C 165.531 257.200,166.027 256.937,166.382 256.616 C 166.737 256.295,168.102 255.464,169.414 254.770 C 170.726 254.077,172.070 253.290,172.400 253.022 C 173.139 252.422,176.965 250.800,177.643 250.800 C 177.915 250.800,178.421 250.549,178.769 250.241 C 179.116 249.934,180.570 249.062,182.000 248.304 C 183.430 247.546,185.230 246.538,186.000 246.064 C 186.770 245.589,188.030 244.994,188.800 244.741 C 189.570 244.489,191.158 243.724,192.329 243.041 C 195.821 241.006,204.154 236.680,212.400 232.622 C 214.930 231.377,217.909 229.873,219.020 229.279 C 223.087 227.107,227.485 225.229,231.000 224.166 C 232.980 223.568,234.780 222.953,235.000 222.800 C 235.739 222.287,242.168 220.451,245.600 219.772 C 255.184 217.877,273.085 219.702,274.980 222.767 C 275.097 222.956,275.689 223.234,276.296 223.383 C 280.073 224.312,288.903 232.509,291.734 237.715 C 295.605 244.832,297.344 255.802,295.600 262.097 C 295.160 263.685,294.800 265.386,294.800 265.878 C 294.800 267.839,291.956 274.803,289.642 278.508 C 284.030 287.491,281.907 290.079,275.783 295.400 C 272.852 297.947,271.098 299.215,268.615 300.584 C 267.524 301.186,266.444 301.922,266.215 302.220 C 265.987 302.518,264.810 303.281,263.600 303.916 C 262.390 304.551,260.770 305.463,260.000 305.944 C 259.230 306.424,257.622 307.105,256.426 307.458 C 255.231 307.811,253.071 308.638,251.626 309.296 C 250.182 309.954,248.190 310.727,247.200 311.013 C 246.210 311.299,244.860 311.719,244.200 311.946 C 240.871 313.095,237.597 313.949,235.800 314.137 C 234.700 314.252,232.360 314.615,230.600 314.943 C 218.419 317.218,197.551 316.492,185.600 313.378 C 184.390 313.063,182.248 312.611,180.839 312.374 C 179.431 312.137,175.780 310.966,172.727 309.771 C 169.673 308.577,167.095 307.600,166.996 307.600 C 166.491 307.600,159.509 303.993,157.600 302.746 C 156.390 301.956,154.500 300.880,153.400 300.356 C 152.300 299.832,150.528 298.726,149.461 297.899 C 146.276 295.429,146.605 295.406,136.600 298.802 C 133.960 299.698,130.360 300.771,128.600 301.186 C 126.840 301.601,124.680 302.124,123.800 302.347 C 119.961 303.320,114.414 304.416,112.200 304.640 C 110.880 304.774,108.810 305.109,107.600 305.386 C 106.390 305.662,103.245 305.923,100.611 305.966 C 97.977 306.009,95.762 306.105,95.688 306.179 C 95.180 306.687,104.736 315.058,109.371 318.166 C 111.775 319.778,112.514 320.335,113.934 321.605 C 115.270 322.801,117.058 323.926,120.600 325.801 C 122.580 326.849,124.470 327.927,124.800 328.195 C 125.463 328.735,126.985 329.515,134.456 333.144 C 137.237 334.495,139.743 335.600,140.025 335.600 C 140.306 335.600,140.821 335.840,141.169 336.134 C 141.894 336.747,146.065 338.283,149.000 339.018 C 150.100 339.294,151.990 339.919,153.200 340.407 C 154.410 340.895,156.459 341.531,157.752 341.820 C 159.046 342.110,160.576 342.525,161.152 342.743 C 161.729 342.961,162.920 343.247,163.800 343.378 C 164.680 343.509,166.930 343.969,168.800 344.400 C 178.919 346.734,201.765 347.479,214.200 345.880 C 226.824 344.257,228.595 343.949,231.800 342.821 C 233.614 342.183,239.325 340.475,244.656 338.976 C 245.787 338.658,247.227 338.129,247.856 337.801 C 248.485 337.473,249.270 337.203,249.600 337.200 C 249.930 337.197,250.678 336.946,251.261 336.641 C 251.845 336.337,253.015 335.865,253.861 335.593 C 254.708 335.321,255.670 334.875,256.000 334.601 C 256.330 334.327,258.220 333.351,260.200 332.433 C 265.431 330.005,267.997 328.643,267.999 328.290 C 267.999 328.120,268.457 327.806,269.015 327.594 C 270.422 327.059,277.539 322.871,279.000 321.718 C 279.660 321.198,280.649 320.392,281.197 319.929 C 281.746 319.466,282.916 318.634,283.797 318.080 C 285.939 316.735,291.106 312.770,292.600 311.326 C 294.239 309.741,299.481 304.910,301.417 303.200 C 302.289 302.430,304.616 299.820,306.590 297.400 C 308.563 294.980,310.639 292.530,311.203 291.955 C 311.767 291.380,313.984 288.320,316.129 285.155 C 318.273 281.990,320.568 278.680,321.227 277.800 C 321.886 276.920,322.600 275.781,322.814 275.270 C 323.028 274.758,323.718 273.588,324.347 272.670 C 324.976 271.751,325.631 270.550,325.802 270.000 C 325.974 269.450,327.432 266.280,329.043 262.954 C 330.654 259.629,332.143 256.209,332.353 255.354 C 332.563 254.500,333.267 252.531,333.918 250.980 C 334.569 249.428,335.234 247.538,335.397 246.780 C 335.559 246.021,335.924 244.950,336.208 244.400 C 336.944 242.972,338.644 237.211,339.571 233.000 C 340.299 229.694,340.784 226.455,342.024 216.600 C 343.209 207.187,342.752 186.009,341.187 177.800 C 340.977 176.700,340.420 173.820,339.949 171.400 C 339.477 168.980,338.938 165.962,338.750 164.693 C 338.563 163.424,338.157 161.984,337.850 161.493 C 337.542 161.002,337.173 159.933,337.030 159.117 C 336.887 158.301,336.508 157.131,336.188 156.517 C 335.867 155.903,335.604 155.148,335.602 154.840 C 335.601 154.532,335.158 153.362,334.617 152.240 C 334.076 151.118,332.981 148.310,332.184 146.000 C 330.649 141.552,330.250 140.564,329.603 139.600 C 329.381 139.270,329.020 138.550,328.801 138.000 C 328.581 137.450,328.220 136.730,327.997 136.400 C 327.774 136.070,326.966 134.450,326.201 132.800 C 324.529 129.193,323.026 126.479,321.063 123.522 C 320.259 122.309,319.600 121.181,319.600 121.014 C 319.600 120.847,318.908 119.876,318.062 118.856 C 317.216 117.835,315.692 115.740,314.676 114.200 C 313.660 112.660,312.324 110.860,311.706 110.200 C 311.088 109.540,309.472 107.632,308.114 105.959 C 306.756 104.287,304.105 101.414,302.223 99.576 C 300.340 97.737,298.800 96.077,298.800 95.886 C 298.800 95.445,296.572 93.201,296.131 93.197 C 295.949 93.195,294.488 92.027,292.885 90.600 C 289.870 87.918,282.232 82.000,281.785 82.000 C 281.645 82.000,280.936 81.439,280.209 80.753 C 279.482 80.067,278.245 79.122,277.461 78.653 C 273.014 75.993,272.127 75.427,271.400 74.783 C 269.962 73.509,252.339 65.072,249.736 64.411 C 248.821 64.179,246.516 63.361,244.614 62.594 C 242.712 61.827,240.850 61.199,240.478 61.198 C 240.105 61.196,239.297 60.933,238.683 60.612 C 238.069 60.292,236.899 59.922,236.083 59.790 C 234.461 59.527,228.678 58.254,225.200 57.394 C 223.990 57.095,221.920 56.733,220.600 56.591 C 219.280 56.449,216.850 56.079,215.200 55.770 C 212.747 55.309,196.490 54.228,195.641 54.468 C 195.509 54.506,191.890 54.660,187.600 54.811 M210.200 119.417 C 203.707 120.344,197.453 122.136,192.200 124.576 C 191.540 124.882,189.920 125.574,188.600 126.114 C 184.526 127.779,183.662 128.242,182.285 129.493 C 180.959 130.698,177.462 133.062,176.577 133.352 C 176.150 133.492,174.455 134.865,172.811 136.403 C 171.167 137.941,169.674 139.200,169.494 139.200 C 169.197 139.200,160.776 147.588,159.788 148.867 C 159.562 149.160,158.449 150.520,157.315 151.889 C 155.538 154.034,152.384 158.492,150.964 160.866 C 150.725 161.267,150.246 161.911,149.900 162.297 C 149.328 162.936,148.686 164.231,145.446 171.275 C 144.871 172.527,144.400 173.792,144.400 174.086 C 144.400 174.381,144.154 174.977,143.854 175.411 C 143.554 175.845,143.179 176.650,143.022 177.200 C 142.865 177.750,142.404 179.100,141.997 180.200 C 140.137 185.236,138.406 192.558,138.401 195.409 C 138.400 196.431,140.332 197.503,143.459 198.216 C 144.747 198.509,146.520 198.927,147.400 199.144 C 151.873 200.249,162.701 200.714,167.523 200.008 C 168.995 199.793,171.370 199.454,172.800 199.256 C 182.895 197.855,195.696 192.689,205.600 186.019 C 206.150 185.648,207.410 184.909,208.400 184.376 C 209.390 183.842,211.128 182.578,212.263 181.566 C 213.398 180.554,214.940 179.435,215.691 179.079 C 216.999 178.458,224.056 171.684,229.678 165.652 C 231.150 164.072,233.097 161.479,234.004 159.890 C 234.911 158.300,236.431 155.723,237.381 154.163 C 238.331 152.603,239.241 150.713,239.403 149.963 C 239.564 149.213,239.923 148.150,240.199 147.600 C 243.804 140.432,241.540 129.981,235.556 126.166 C 234.590 125.550,233.618 124.856,233.395 124.623 C 229.409 120.455,219.111 118.144,210.200 119.417 M250.819 246.867 C 249.400 247.070,248.030 247.409,247.774 247.621 C 247.519 247.833,246.288 248.196,245.039 248.427 C 243.790 248.657,241.476 249.466,239.895 250.223 C 238.315 250.980,236.814 251.600,236.560 251.600 C 235.655 251.600,227.734 255.375,219.400 259.778 C 216.760 261.173,213.430 262.888,212.000 263.591 C 209.000 265.064,206.863 266.188,204.600 267.484 C 203.720 267.988,202.370 268.690,201.600 269.045 C 200.830 269.400,200.104 269.842,199.988 270.027 C 199.729 270.437,186.522 277.200,185.980 277.200 C 185.289 277.200,178.471 281.238,178.268 281.767 C 178.022 282.408,183.568 284.621,187.000 285.252 C 188.320 285.494,190.210 285.956,191.200 286.278 C 192.190 286.599,195.203 287.111,197.896 287.415 C 200.588 287.718,203.494 288.156,204.352 288.387 C 206.984 289.096,221.173 288.958,222.380 288.213 C 222.556 288.104,224.471 287.817,226.635 287.576 C 228.799 287.335,230.920 286.950,231.348 286.721 C 231.775 286.492,234.122 285.796,236.563 285.175 C 242.041 283.780,245.653 282.273,251.625 278.888 C 255.762 276.544,260.932 272.052,262.105 269.784 C 262.442 269.132,263.321 267.958,264.059 267.174 C 265.403 265.747,265.927 264.824,267.633 260.887 C 270.272 254.798,267.067 247.587,261.461 247.000 C 257.442 246.579,253.206 246.526,250.819 246.867 " stroke="none" fill="#472b29" fill-rule="evenodd"></path><path id="path2" d="M187.400 28.408 C 161.875 29.565,137.294 36.247,121.396 46.351 C 119.638 47.468,117.062 49.038,115.672 49.841 C 113.227 51.252,110.831 53.071,105.051 57.902 C 98.594 63.299,87.935 75.640,84.846 81.295 C 84.213 82.453,82.924 84.660,81.981 86.200 C 77.770 93.078,72.515 107.205,71.789 113.600 C 71.652 114.810,71.239 117.150,70.873 118.800 C 69.877 123.283,69.916 140.252,70.935 145.800 C 72.014 151.675,73.523 157.921,74.415 160.200 C 74.845 161.300,76.019 164.340,77.024 166.956 C 79.014 172.137,81.482 177.246,83.265 179.872 C 83.889 180.792,84.402 181.692,84.404 181.872 C 84.406 182.052,85.621 183.944,87.104 186.075 C 93.610 195.426,98.405 200.868,105.689 207.170 C 110.458 211.296,110.202 210.773,110.601 217.200 C 111.409 230.228,113.061 239.895,116.018 248.904 C 117.119 252.257,118.396 256.170,118.856 257.600 C 119.974 261.074,121.251 263.793,124.058 268.667 C 127.345 274.376,127.437 274.211,119.800 276.336 C 90.470 284.500,68.029 275.333,58.613 251.343 C 55.630 243.745,54.262 240.573,53.852 240.306 C 53.183 239.871,50.063 239.938,49.188 240.406 C 48.501 240.774,44.211 242.090,35.468 244.616 C 30.732 245.985,29.863 247.062,30.974 250.187 C 31.289 251.074,32.028 253.420,32.616 255.400 C 33.682 258.989,34.271 260.530,38.195 270.000 C 40.128 274.665,44.780 283.764,47.440 288.083 C 52.558 296.392,54.075 298.763,54.824 299.618 C 55.297 300.158,56.243 301.410,56.924 302.400 C 59.593 306.275,62.772 310.408,64.642 312.434 C 69.240 317.417,75.572 323.958,77.773 325.999 C 79.077 327.210,80.619 328.650,81.198 329.200 C 81.778 329.750,83.481 331.190,84.984 332.400 C 86.487 333.610,88.546 335.345,89.558 336.255 C 91.294 337.816,104.647 346.819,110.101 350.106 C 113.534 352.176,129.124 359.839,130.600 360.182 C 131.260 360.336,132.340 360.704,133.000 361.000 C 139.381 363.862,149.937 367.240,156.000 368.360 C 157.210 368.583,160.180 369.230,162.600 369.797 C 166.518 370.715,171.181 371.535,179.677 372.801 C 190.113 374.356,218.161 372.865,229.800 370.137 C 232.220 369.570,235.640 368.785,237.400 368.393 C 242.961 367.156,246.156 366.344,247.600 365.802 C 248.370 365.513,250.260 364.876,251.800 364.387 C 253.340 363.898,256.621 362.711,259.091 361.749 C 261.561 360.787,263.704 360.000,263.853 360.000 C 264.935 360.000,281.417 351.488,285.781 348.675 C 303.120 337.498,310.259 331.684,323.215 318.190 C 328.354 312.838,332.664 307.687,335.009 304.093 C 335.975 302.612,337.464 300.500,338.317 299.400 C 342.969 293.399,352.396 277.026,354.783 270.800 C 355.248 269.590,356.229 267.160,356.965 265.400 C 358.765 261.093,359.708 258.482,361.011 254.200 C 361.613 252.220,362.627 248.980,363.263 247.000 C 367.718 233.137,370.655 205.240,369.210 190.507 C 368.956 187.918,368.511 183.280,368.221 180.200 C 367.645 174.093,367.146 170.810,366.004 165.600 C 365.594 163.730,365.144 161.570,365.003 160.800 C 364.455 157.803,358.764 140.306,356.862 135.773 C 351.114 122.068,345.257 111.576,337.377 100.867 C 335.165 97.860,332.795 94.580,332.111 93.577 C 331.427 92.574,330.554 91.494,330.172 91.177 C 329.789 90.860,328.509 89.389,327.328 87.909 C 322.513 81.876,308.489 68.565,302.350 64.200 C 301.421 63.540,299.568 62.175,298.231 61.167 C 296.894 60.158,294.201 58.268,292.248 56.967 C 290.294 55.665,288.044 54.150,287.248 53.600 C 271.897 42.997,241.600 32.278,219.509 29.635 C 206.334 28.058,200.253 27.826,187.400 28.408 M207.831 29.204 C 210.234 29.426,214.360 29.799,217.000 30.033 C 228.667 31.066,249.226 36.173,259.600 40.614 C 260.810 41.132,263.960 42.480,266.600 43.610 C 271.048 45.514,275.174 47.582,282.200 51.431 C 285.172 53.058,293.261 58.317,296.600 60.791 C 297.700 61.606,300.040 63.332,301.800 64.626 C 328.040 83.916,350.924 116.842,360.997 149.800 C 361.602 151.780,362.449 154.471,362.879 155.779 C 374.332 190.606,368.839 243.130,349.991 279.016 C 345.619 287.340,339.523 297.133,336.803 300.200 C 336.413 300.640,335.805 301.571,335.452 302.269 C 334.305 304.541,324.160 316.694,320.944 319.651 C 320.315 320.229,318.990 321.562,318.000 322.613 C 304.091 337.376,278.338 354.047,258.200 361.323 C 247.517 365.183,245.448 365.845,240.400 367.012 C 237.870 367.597,234.360 368.434,232.600 368.871 C 219.644 372.091,190.385 373.826,179.281 372.033 C 167.914 370.197,163.937 369.492,162.200 369.004 C 161.100 368.695,158.940 368.243,157.400 367.999 C 152.056 367.155,139.312 363.196,134.200 360.792 C 133.760 360.585,132.050 359.939,130.400 359.356 C 128.750 358.773,124.577 356.879,121.127 355.148 C 117.677 353.417,114.750 352.000,114.622 352.000 C 114.495 352.000,113.178 351.216,111.695 350.257 C 110.213 349.298,107.200 347.392,105.000 346.021 C 88.039 335.449,69.735 318.985,60.225 305.749 C 59.139 304.237,57.312 301.740,56.165 300.200 C 50.275 292.295,42.158 277.863,38.460 268.725 C 34.532 259.015,34.051 257.748,32.834 253.901 C 31.315 249.101,31.219 246.950,32.500 246.387 C 35.794 244.939,52.078 240.449,52.902 240.763 C 53.609 241.031,54.217 242.157,55.546 245.656 C 64.663 269.649,77.313 279.672,98.600 279.766 C 108.024 279.808,112.926 279.142,122.000 276.585 C 127.904 274.922,128.088 274.560,125.464 269.769 C 121.103 261.805,120.424 260.393,119.422 257.200 C 118.835 255.330,117.561 251.370,116.590 248.400 C 113.600 239.251,112.316 231.947,111.600 220.000 C 111.088 211.478,110.769 210.419,108.098 208.400 C 105.324 206.303,95.948 196.931,93.950 194.259 C 88.817 187.392,87.152 184.991,84.747 180.985 C 80.619 174.111,78.489 169.444,74.988 159.600 C 69.348 143.743,69.484 118.968,75.299 103.000 C 78.741 93.549,80.879 88.782,83.015 85.800 C 83.488 85.140,84.563 83.340,85.404 81.800 C 88.212 76.660,96.045 67.093,101.883 61.674 C 107.957 56.037,110.452 54.142,119.800 48.066 C 122.361 46.402,130.591 42.155,136.000 39.707 C 141.715 37.121,157.776 32.392,162.800 31.816 C 164.010 31.677,165.810 31.393,166.800 31.186 C 174.926 29.480,198.501 28.342,207.831 29.204 M190.000 52.855 C 185.930 52.996,181.557 53.302,180.283 53.537 C 179.009 53.772,176.134 54.165,173.895 54.412 C 171.655 54.658,167.478 55.405,164.612 56.071 C 161.745 56.738,158.320 57.524,157.000 57.818 C 150.953 59.167,137.423 65.068,132.400 68.548 C 131.410 69.234,129.642 70.376,128.470 71.086 C 125.679 72.779,117.854 79.396,114.918 82.547 C 112.219 85.445,105.600 93.892,105.600 94.439 C 105.600 94.645,104.772 96.178,103.760 97.845 C 89.817 120.814,92.239 152.099,109.749 175.200 C 114.593 181.591,114.515 181.635,118.208 170.400 C 121.425 160.611,126.517 150.343,131.510 143.575 C 132.230 142.599,133.888 140.324,135.193 138.520 C 172.179 87.413,242.193 78.000,264.002 121.204 C 267.293 127.724,268.666 142.316,266.673 149.600 C 263.049 162.846,255.987 175.243,246.205 185.529 C 244.882 186.920,243.746 188.207,243.680 188.388 C 243.439 189.054,233.276 197.935,229.200 201.042 C 213.755 212.817,196.700 220.574,177.206 224.692 C 171.517 225.894,150.552 226.280,146.200 225.264 C 144.095 224.772,137.992 223.601,137.529 223.601 C 135.457 223.596,135.711 226.536,138.850 238.915 C 141.940 251.103,148.955 264.800,152.105 264.800 C 152.517 264.800,156.904 262.820,161.854 260.400 C 166.804 257.980,170.910 256.000,170.979 256.000 C 171.047 256.000,173.960 254.495,177.452 252.656 C 180.943 250.817,186.050 248.140,188.800 246.708 C 191.550 245.276,197.850 241.997,202.800 239.420 C 224.404 228.175,234.081 224.129,244.598 221.944 C 287.674 212.993,310.350 253.119,281.458 287.168 C 262.752 309.213,226.446 319.017,188.600 312.242 C 176.043 309.994,158.131 302.465,149.946 295.995 C 146.974 293.646,145.992 293.603,140.542 295.587 C 133.492 298.153,131.901 298.635,124.787 300.353 C 112.949 303.211,109.780 303.678,101.000 303.855 C 92.660 304.023,92.000 304.093,92.000 304.811 C 92.000 306.002,103.062 316.020,108.466 319.725 C 109.859 320.680,112.260 322.376,113.800 323.493 C 115.340 324.611,117.275 325.902,118.100 326.362 C 120.351 327.620,121.974 328.554,124.304 329.936 C 160.403 351.346,209.549 354.494,252.000 338.115 C 259.010 335.410,276.747 325.911,279.800 323.226 C 280.240 322.839,282.220 321.422,284.200 320.076 C 304.152 306.516,326.162 278.080,334.414 255.200 C 339.841 240.154,341.791 232.984,343.171 223.000 C 351.248 164.556,326.768 109.662,278.200 77.311 C 274.240 74.674,269.113 71.565,266.807 70.404 C 264.501 69.243,261.981 67.904,261.207 67.428 C 257.939 65.421,241.055 59.053,235.600 57.770 C 218.246 53.689,205.539 52.319,190.000 52.855 M202.400 53.591 C 212.188 54.213,218.498 54.829,220.800 55.385 C 222.010 55.678,223.810 56.033,224.800 56.175 C 230.543 56.999,239.729 59.570,247.800 62.615 C 249.340 63.195,251.440 63.934,252.467 64.256 C 255.787 65.296,270.464 72.983,275.344 76.237 C 277.954 77.976,280.654 79.746,281.344 80.169 C 285.787 82.891,297.466 92.896,302.509 98.300 C 309.048 105.309,309.719 106.062,312.221 109.200 C 322.377 121.939,329.234 134.595,336.384 153.800 C 342.758 170.919,345.817 200.298,343.047 217.800 C 342.734 219.780,342.359 222.570,342.213 224.000 C 341.247 233.499,335.391 252.371,329.929 263.588 C 328.587 266.344,327.061 269.500,326.538 270.600 C 325.655 272.458,324.779 273.922,320.616 280.498 C 301.127 311.283,268.410 334.658,231.800 343.951 C 212.895 348.750,180.664 349.076,164.600 344.629 C 163.500 344.325,161.880 343.955,161.000 343.808 C 158.749 343.430,143.170 338.205,139.800 336.698 C 129.695 332.177,117.765 325.791,113.918 322.843 C 112.883 322.049,111.382 320.950,110.584 320.400 C 103.832 315.750,93.200 306.327,93.200 304.993 C 93.200 304.696,95.414 304.534,100.100 304.488 C 103.895 304.450,108.350 304.247,110.000 304.035 C 117.503 303.074,129.708 300.099,137.521 297.328 C 146.106 294.283,146.409 294.265,149.545 296.623 C 155.688 301.240,172.257 309.194,178.743 310.639 C 180.141 310.951,181.417 311.287,181.577 311.386 C 182.131 311.728,194.215 313.916,198.200 314.396 C 208.863 315.678,223.570 315.251,233.000 313.385 C 234.540 313.080,236.880 312.644,238.200 312.416 C 245.724 311.113,259.423 305.401,267.282 300.288 C 291.222 284.715,301.555 258.236,291.119 239.204 C 281.101 220.933,260.936 215.387,235.274 223.845 C 232.345 224.810,229.713 225.600,229.425 225.600 C 229.138 225.600,226.225 226.926,222.951 228.548 C 219.678 230.169,215.110 232.419,212.800 233.548 C 208.728 235.539,202.228 238.890,189.800 245.405 C 173.716 253.836,172.037 254.688,157.780 261.647 C 155.128 262.941,152.568 264.000,152.090 264.000 C 151.120 264.000,148.021 259.907,146.098 256.087 C 145.494 254.887,144.657 253.252,144.238 252.453 C 141.543 247.319,136.146 227.081,136.928 225.044 C 137.246 224.215,138.017 224.233,142.507 225.174 C 156.672 228.143,175.099 226.990,189.800 222.215 C 210.832 215.384,227.613 205.160,243.004 189.801 C 248.530 184.287,249.971 182.540,257.758 171.924 C 267.066 159.235,270.821 138.815,266.348 125.211 C 262.248 112.744,248.877 100.132,235.600 96.209 C 234.390 95.851,232.320 95.217,231.000 94.800 C 219.790 91.253,208.456 91.902,189.535 97.175 C 182.872 99.032,170.408 105.232,164.598 109.580 C 163.496 110.404,162.056 111.363,161.398 111.711 C 160.739 112.058,159.653 112.851,158.984 113.471 C 158.316 114.092,156.966 115.221,155.984 115.979 C 142.049 126.751,128.613 143.993,120.872 161.038 C 120.097 162.746,118.414 167.402,117.800 169.539 C 117.239 171.491,114.932 177.862,114.580 178.433 C 113.907 179.522,107.775 172.292,105.652 167.908 C 105.150 166.871,104.344 165.433,103.860 164.711 C 101.995 161.929,99.284 154.846,97.464 148.000 C 96.533 144.495,96.033 141.079,95.388 133.800 C 95.101 130.570,96.134 119.645,96.967 117.092 C 97.271 116.161,98.009 113.600,98.608 111.400 C 102.431 97.363,117.862 77.230,129.306 71.349 C 130.018 70.984,131.623 69.992,132.874 69.145 C 138.710 65.194,151.693 59.677,158.600 58.213 C 160.360 57.840,162.610 57.288,163.600 56.986 C 167.781 55.713,180.590 54.004,188.800 53.624 C 192.210 53.467,195.360 53.312,195.800 53.280 C 196.240 53.248,199.210 53.388,202.400 53.591 M210.200 117.863 C 190.509 119.449,164.125 136.758,152.097 155.982 C 151.334 157.202,150.013 159.215,149.161 160.455 C 144.220 167.649,136.508 188.726,136.313 195.569 C 136.206 199.324,145.857 201.800,160.600 201.800 C 170.898 201.800,171.307 201.745,181.800 198.961 C 201.232 193.805,225.325 176.601,235.843 160.371 C 244.461 147.074,246.018 135.324,240.121 128.087 C 233.668 120.167,223.736 116.774,210.200 117.863 M226.600 119.712 C 241.196 124.902,246.913 137.623,240.385 150.386 C 240.212 150.724,239.561 152.080,238.938 153.400 C 236.771 157.991,233.304 163.191,230.007 166.800 C 225.536 171.693,219.479 177.551,216.696 179.674 C 214.989 180.976,213.279 182.360,212.896 182.750 C 211.801 183.863,199.566 191.030,195.477 192.954 C 182.121 199.236,169.888 201.975,157.600 201.434 C 148.618 201.039,138.798 198.677,137.425 196.583 C 136.047 194.479,141.001 177.905,146.180 167.289 C 146.961 165.689,147.600 164.291,147.600 164.184 C 147.600 163.483,154.573 153.627,158.488 148.793 C 170.515 133.947,191.373 121.096,207.200 118.780 C 212.039 118.072,223.542 118.625,226.600 119.712 M249.000 245.629 C 244.994 246.484,239.840 248.056,237.400 249.165 C 231.783 251.720,225.762 254.613,220.200 257.429 C 210.519 262.331,198.437 268.671,197.855 269.155 C 197.364 269.562,186.257 275.346,178.700 279.129 C 173.694 281.634,174.012 282.709,180.463 285.088 C 190.566 288.814,205.923 291.075,216.513 290.396 C 235.725 289.165,250.326 283.750,260.160 274.208 C 277.940 256.957,271.629 240.795,249.000 245.629 M261.910 246.167 C 273.522 248.658,272.032 262.336,258.800 274.704 C 244.777 287.811,215.171 293.346,191.200 287.344 C 189.990 287.041,187.740 286.517,186.200 286.181 C 183.140 285.511,177.727 283.435,176.845 282.592 C 175.840 281.631,176.689 280.902,181.874 278.273 C 184.693 276.844,188.800 274.737,191.000 273.591 C 193.200 272.445,195.540 271.231,196.200 270.893 C 196.860 270.555,198.570 269.606,200.000 268.784 C 201.430 267.963,205.030 266.035,208.000 264.500 C 210.970 262.966,215.020 260.854,217.000 259.807 C 240.302 247.487,251.794 243.996,261.910 246.167 " stroke="none" fill="#8e5b2b" fill-rule="evenodd"></path><path id="path3" d="M186.200 29.211 C 180.262 29.554,169.218 30.678,166.800 31.186 C 165.810 31.393,164.010 31.677,162.800 31.816 C 157.776 32.392,141.715 37.121,136.000 39.707 C 130.591 42.155,122.361 46.402,119.800 48.066 C 110.452 54.142,107.957 56.037,101.883 61.674 C 96.045 67.093,88.212 76.660,85.404 81.800 C 84.563 83.340,83.488 85.140,83.015 85.800 C 80.879 88.782,78.741 93.549,75.299 103.000 C 69.484 118.968,69.348 143.743,74.988 159.600 C 78.489 169.444,80.619 174.111,84.747 180.985 C 87.152 184.991,88.817 187.392,93.950 194.259 C 95.948 196.931,105.324 206.303,108.098 208.400 C 110.769 210.419,111.088 211.478,111.600 220.000 C 112.316 231.947,113.600 239.251,116.590 248.400 C 117.561 251.370,118.835 255.330,119.422 257.200 C 120.424 260.393,121.103 261.805,125.464 269.769 C 128.088 274.560,127.904 274.922,122.000 276.585 C 98.709 283.147,80.222 280.194,68.755 268.079 C 63.109 262.115,59.422 255.856,55.546 245.656 C 54.217 242.157,53.609 241.031,52.902 240.763 C 52.078 240.449,35.794 244.939,32.500 246.387 C 31.219 246.950,31.315 249.101,32.834 253.901 C 34.051 257.748,34.532 259.015,38.460 268.725 C 42.158 277.863,50.275 292.295,56.165 300.200 C 57.312 301.740,59.139 304.237,60.225 305.749 C 69.735 318.985,88.039 335.449,105.000 346.021 C 107.200 347.392,110.213 349.298,111.695 350.257 C 113.178 351.216,114.495 352.000,114.622 352.000 C 114.750 352.000,117.677 353.417,121.127 355.148 C 124.577 356.879,128.750 358.773,130.400 359.356 C 132.050 359.939,133.760 360.585,134.200 360.792 C 139.312 363.196,152.056 367.155,157.400 367.999 C 158.940 368.243,161.100 368.695,162.200 369.004 C 163.937 369.492,167.914 370.197,179.281 372.033 C 190.385 373.826,219.644 372.091,232.600 368.871 C 234.360 368.434,237.870 367.597,240.400 367.012 C 245.448 365.845,247.517 365.183,258.200 361.323 C 278.338 354.047,304.091 337.376,318.000 322.613 C 318.990 321.562,320.315 320.229,320.944 319.651 C 324.160 316.694,334.305 304.541,335.452 302.269 C 335.805 301.571,336.413 300.640,336.803 300.200 C 349.017 286.426,362.669 253.353,366.771 227.600 C 370.351 205.128,368.623 173.246,362.879 155.779 C 362.449 154.471,361.602 151.780,360.997 149.800 C 350.924 116.842,328.040 83.916,301.800 64.626 C 300.040 63.332,297.700 61.606,296.600 60.791 C 293.261 58.317,285.172 53.058,282.200 51.431 C 275.174 47.582,271.048 45.514,266.600 43.610 C 263.960 42.480,260.810 41.132,259.600 40.614 C 249.226 36.173,228.667 31.066,217.000 30.033 C 214.360 29.799,210.234 29.426,207.831 29.204 C 203.098 28.766,193.842 28.769,186.200 29.211 M209.600 30.592 C 218.908 31.156,228.503 32.349,231.993 33.377 C 232.987 33.669,235.330 34.313,237.200 34.806 C 249.095 37.947,255.822 40.153,262.200 43.002 C 262.860 43.296,264.390 43.918,265.600 44.382 C 266.810 44.847,268.340 45.488,269.000 45.806 C 269.660 46.125,270.830 46.659,271.600 46.993 C 272.370 47.327,273.810 48.064,274.800 48.632 C 276.827 49.793,280.690 51.915,282.319 52.761 C 282.914 53.070,284.390 53.969,285.600 54.760 C 286.810 55.550,287.986 56.288,288.214 56.398 C 288.869 56.717,295.215 61.117,297.200 62.629 C 298.190 63.383,299.270 64.124,299.600 64.276 C 300.171 64.539,302.360 66.299,307.172 70.365 C 315.063 77.031,327.584 90.047,331.082 95.220 C 331.788 96.263,333.771 98.980,335.490 101.258 C 337.209 103.536,339.053 106.120,339.587 107.000 C 340.121 107.880,341.511 110.074,342.677 111.875 C 343.842 113.677,346.034 117.547,347.547 120.475 C 349.061 123.404,350.584 126.340,350.933 127.000 C 351.282 127.660,351.922 129.010,352.356 130.000 C 352.789 130.990,353.586 132.790,354.126 134.000 C 354.667 135.210,355.602 137.550,356.205 139.200 C 356.808 140.850,357.741 143.370,358.280 144.800 C 358.818 146.230,359.393 148.030,359.557 148.800 C 359.722 149.570,360.139 151.010,360.484 152.000 C 361.974 156.272,363.167 161.173,365.354 172.000 C 365.687 173.650,366.074 176.440,366.214 178.200 C 366.353 179.960,366.719 183.200,367.026 185.400 C 367.670 190.006,367.792 208.476,367.216 214.200 C 366.332 223.004,365.565 228.989,365.026 231.302 C 364.705 232.676,364.056 235.690,363.582 238.000 C 363.109 240.310,362.116 244.180,361.377 246.600 C 360.637 249.020,359.918 251.540,359.779 252.200 C 359.297 254.477,353.662 269.042,351.809 272.800 C 346.584 283.395,343.521 288.758,338.903 295.400 C 337.527 297.380,335.730 299.990,334.911 301.200 C 329.891 308.615,315.064 324.680,307.131 331.299 C 303.890 334.003,298.514 338.074,295.975 339.747 C 294.779 340.534,292.720 341.956,291.400 342.906 C 289.122 344.545,282.926 348.469,280.181 350.011 C 279.482 350.403,278.570 350.918,278.155 351.154 C 277.740 351.390,276.230 352.150,274.800 352.841 C 273.370 353.533,271.570 354.414,270.800 354.798 C 269.472 355.462,263.916 358.058,262.200 358.818 C 261.760 359.012,260.320 359.540,259.000 359.991 C 242.425 365.646,241.587 365.894,233.293 367.599 C 231.254 368.019,229.395 368.479,229.163 368.623 C 228.930 368.767,226.819 369.136,224.470 369.444 C 222.122 369.752,218.040 370.300,215.400 370.662 C 207.843 371.697,183.208 371.577,176.400 370.472 C 173.650 370.026,170.500 369.559,169.400 369.434 C 168.300 369.309,165.870 368.855,164.000 368.424 C 162.130 367.993,158.530 367.169,156.000 366.592 C 151.109 365.477,143.221 363.112,138.600 361.375 C 137.060 360.796,135.080 360.062,134.200 359.743 C 133.320 359.425,132.033 358.902,131.340 358.582 C 130.646 358.262,129.969 358.000,129.835 358.000 C 129.701 358.000,127.298 356.901,124.495 355.557 C 121.693 354.213,118.410 352.648,117.200 352.078 C 115.990 351.508,113.718 350.178,112.152 349.121 C 110.585 348.064,109.142 347.200,108.945 347.200 C 108.748 347.200,106.880 346.067,104.793 344.682 C 102.707 343.297,99.830 341.388,98.400 340.438 C 93.816 337.394,93.047 336.839,90.459 334.700 C 76.793 323.404,66.013 312.236,58.779 301.880 C 51.242 291.089,47.861 285.688,45.214 280.206 C 44.047 277.790,42.674 275.151,42.163 274.341 C 41.652 273.532,40.586 271.189,39.793 269.135 C 39.001 267.081,37.840 264.140,37.214 262.600 C 34.902 256.918,32.370 248.990,32.588 248.115 C 32.744 247.485,33.296 247.097,34.504 246.769 C 35.437 246.516,37.010 246.065,38.000 245.766 C 52.268 241.463,53.600 241.288,53.600 243.712 C 53.600 243.925,54.050 245.157,54.600 246.450 C 55.150 247.742,56.066 249.925,56.635 251.300 C 62.475 265.399,71.844 274.816,84.229 279.035 C 92.281 281.777,110.860 281.258,121.000 278.008 C 122.320 277.585,124.077 277.120,124.903 276.974 C 129.066 276.242,129.276 274.451,125.919 268.326 C 122.112 261.382,120.646 258.142,119.437 254.000 C 118.826 251.910,117.773 248.490,117.097 246.400 C 115.794 242.379,115.137 239.536,114.228 233.996 C 113.921 232.123,113.460 229.434,113.204 228.020 C 112.947 226.606,112.599 222.265,112.431 218.372 C 112.127 211.352,111.412 208.400,110.018 208.400 C 109.694 208.400,106.040 205.275,102.800 202.228 C 93.721 193.690,83.117 178.064,78.949 167.082 C 70.105 143.782,69.434 122.693,76.876 102.000 C 80.008 93.292,82.286 88.322,84.211 86.000 C 84.484 85.670,85.364 84.140,86.165 82.600 C 87.568 79.904,88.877 78.103,94.708 70.853 C 99.663 64.691,110.458 55.048,116.000 51.832 C 117.430 51.003,119.173 49.891,119.873 49.362 C 120.574 48.833,121.317 48.400,121.524 48.400 C 121.732 48.400,122.096 48.166,122.334 47.879 C 122.896 47.202,132.517 42.453,138.600 39.850 C 141.569 38.580,154.617 34.565,157.601 34.003 C 158.811 33.775,160.340 33.415,161.000 33.202 C 163.361 32.441,179.135 30.716,186.400 30.424 C 197.769 29.968,199.513 29.980,209.600 30.592 M182.400 52.048 C 174.858 53.062,165.359 54.505,165.071 54.682 C 164.671 54.927,157.702 56.729,155.200 57.236 C 152.205 57.841,146.089 60.232,140.480 62.991 C 137.561 64.426,135.098 65.600,135.007 65.600 C 134.915 65.600,134.066 66.113,133.120 66.740 C 132.174 67.368,129.870 68.880,128.000 70.101 C 119.472 75.670,108.400 87.168,104.464 94.543 C 103.811 95.767,102.899 97.299,102.438 97.946 C 97.573 104.779,93.525 120.242,93.576 131.800 C 93.625 143.024,97.372 157.895,101.937 164.985 C 102.509 165.873,103.550 167.702,104.249 169.048 C 105.330 171.128,109.713 177.201,112.368 180.300 C 114.591 182.894,115.744 181.469,118.599 172.600 C 120.764 165.876,126.433 152.711,127.827 151.171 C 128.142 150.822,128.400 150.418,128.400 150.272 C 128.400 149.995,130.910 146.256,133.237 143.065 C 141.362 131.925,143.768 129.164,151.550 122.051 C 153.325 120.428,155.756 118.358,156.952 117.451 C 158.148 116.543,159.999 115.107,161.064 114.261 C 162.129 113.415,165.258 111.255,168.018 109.461 C 172.743 106.390,174.917 105.190,179.200 103.288 C 180.190 102.849,182.235 101.920,183.745 101.224 C 192.625 97.131,204.488 94.672,215.400 94.665 C 253.293 94.638,276.910 126.783,262.521 158.800 C 260.243 163.869,257.628 168.817,256.208 170.748 C 255.296 171.987,253.915 173.994,253.139 175.209 C 242.963 191.126,212.896 213.630,195.200 218.575 C 194.180 218.860,185.349 221.558,181.888 222.643 C 177.094 224.144,169.287 224.962,159.800 224.955 C 150.343 224.948,149.859 224.895,137.884 222.525 C 134.578 221.871,134.404 226.117,137.281 237.200 C 137.938 239.730,138.645 242.520,138.852 243.400 C 139.363 245.569,142.004 252.363,142.817 253.600 C 143.179 254.150,144.139 255.940,144.950 257.578 C 147.379 262.483,150.305 266.000,151.957 266.000 C 152.508 266.000,155.757 264.631,159.179 262.958 C 170.960 257.196,179.808 252.758,183.000 251.009 C 184.760 250.045,188.450 248.100,191.200 246.688 C 196.596 243.916,201.438 241.373,202.400 240.805 C 202.730 240.610,203.540 240.197,204.200 239.886 C 204.860 239.576,209.280 237.359,214.023 234.961 C 218.765 232.562,223.625 230.169,224.823 229.642 C 229.560 227.558,232.553 226.383,234.530 225.832 C 235.669 225.514,238.400 224.724,240.600 224.076 C 257.617 219.065,274.829 222.449,284.460 232.699 C 304.232 253.742,289.876 289.303,255.400 304.680 C 239.663 311.699,218.608 314.830,200.800 312.798 C 191.652 311.754,187.900 311.216,185.940 310.666 C 184.763 310.335,182.180 309.618,180.200 309.072 C 171.044 306.545,156.138 299.573,151.000 295.413 C 146.820 292.029,146.708 292.032,136.600 295.785 C 124.670 300.215,108.043 303.140,97.340 302.691 C 90.233 302.393,88.815 303.367,91.652 306.598 C 94.054 309.333,104.149 318.081,108.200 320.937 C 116.652 326.896,121.740 329.983,129.000 333.558 C 138.612 338.290,140.583 339.119,148.500 341.759 C 159.237 345.339,159.731 345.480,165.478 346.599 C 168.295 347.148,171.500 347.776,172.600 347.994 C 180.413 349.543,200.584 350.208,210.200 349.235 C 216.133 348.634,225.974 347.263,226.445 346.972 C 226.637 346.854,227.920 346.578,229.297 346.361 C 232.085 345.920,233.729 345.437,244.400 341.928 C 252.777 339.173,252.700 339.204,259.882 335.744 C 262.787 334.345,265.307 333.189,265.482 333.176 C 265.657 333.163,267.420 332.179,269.400 330.991 C 271.380 329.802,274.103 328.190,275.452 327.407 C 277.527 326.203,279.864 324.588,287.174 319.304 C 297.882 311.565,315.720 292.413,321.494 282.456 C 322.086 281.435,323.162 279.769,323.885 278.752 C 324.608 277.736,325.200 276.782,325.200 276.633 C 325.200 276.484,325.808 275.411,326.551 274.249 C 327.295 273.087,328.037 271.701,328.201 271.168 C 328.366 270.636,329.081 269.200,329.792 267.977 C 331.062 265.792,333.433 260.510,335.975 254.200 C 338.161 248.774,340.312 241.951,341.601 236.353 C 342.279 233.409,343.084 229.920,343.391 228.600 C 343.697 227.280,344.429 221.880,345.018 216.600 C 347.118 197.745,345.456 178.236,340.120 159.107 C 339.284 156.112,336.778 149.183,335.597 146.600 C 335.396 146.160,334.610 144.178,333.850 142.196 C 331.602 136.332,326.773 127.172,322.730 121.102 C 321.448 119.178,320.400 117.499,320.400 117.370 C 320.400 116.334,310.824 104.523,305.352 98.809 C 303.345 96.714,301.185 94.450,300.552 93.777 C 299.918 93.104,298.418 91.754,297.219 90.777 C 296.019 89.800,294.489 88.458,293.819 87.796 C 292.245 86.241,285.524 80.895,283.200 79.349 C 282.210 78.690,279.679 76.993,277.575 75.576 C 272.893 72.423,272.778 72.355,267.696 69.727 C 265.439 68.560,262.919 67.186,262.096 66.675 C 260.683 65.795,259.436 65.238,255.200 63.592 C 254.210 63.208,251.420 62.090,249.000 61.107 C 241.515 58.070,234.050 56.054,220.600 53.439 C 212.398 51.844,189.989 51.028,182.400 52.048 M214.000 53.771 C 219.126 54.328,227.770 55.929,235.600 57.770 C 238.734 58.507,243.347 60.069,249.800 62.576 C 257.466 65.554,259.708 66.508,261.207 67.428 C 261.981 67.904,264.501 69.243,266.807 70.404 C 316.847 95.602,349.264 155.143,344.224 212.600 C 342.706 229.907,341.239 236.277,334.414 255.200 C 326.162 278.080,304.152 306.516,284.200 320.076 C 282.220 321.422,280.240 322.839,279.800 323.226 C 278.031 324.781,267.019 331.100,261.000 334.014 C 218.082 354.788,163.459 353.158,124.304 329.936 C 121.974 328.554,120.351 327.620,118.100 326.362 C 117.275 325.902,115.340 324.611,113.800 323.493 C 112.260 322.376,109.859 320.680,108.466 319.725 C 103.062 316.020,92.000 306.002,92.000 304.811 C 92.000 304.093,92.660 304.023,101.000 303.855 C 113.005 303.613,125.906 300.915,140.542 295.587 C 145.992 293.603,146.974 293.646,149.946 295.995 C 158.131 302.465,176.043 309.994,188.600 312.242 C 234.247 320.413,273.751 305.572,289.899 274.184 C 301.269 252.083,290.972 227.945,267.645 222.015 C 251.373 217.879,236.534 221.862,202.800 239.420 C 197.850 241.997,191.550 245.276,188.800 246.708 C 186.050 248.140,180.943 250.817,177.452 252.656 C 173.960 254.495,171.047 256.000,170.979 256.000 C 170.910 256.000,166.804 257.980,161.854 260.400 C 156.904 262.820,152.517 264.800,152.105 264.800 C 148.955 264.800,141.940 251.103,138.850 238.915 C 135.711 226.536,135.457 223.596,137.529 223.601 C 137.992 223.601,144.095 224.772,146.200 225.264 C 150.552 226.280,171.517 225.894,177.206 224.692 C 196.700 220.574,213.755 212.817,229.200 201.042 C 233.276 197.935,243.439 189.054,243.680 188.388 C 243.746 188.207,244.882 186.920,246.205 185.529 C 255.987 175.243,263.049 162.846,266.673 149.600 C 268.666 142.316,267.293 127.724,264.002 121.204 C 242.193 78.000,172.179 87.413,135.193 138.520 C 133.888 140.324,132.230 142.599,131.510 143.575 C 126.517 150.343,121.425 160.611,118.208 170.400 C 114.515 181.635,114.593 181.591,109.749 175.200 C 92.239 152.099,89.817 120.814,103.760 97.845 C 104.772 96.178,105.600 94.645,105.600 94.439 C 105.600 93.892,112.219 85.445,114.918 82.547 C 117.854 79.396,125.679 72.779,128.470 71.086 C 129.642 70.376,131.410 69.234,132.400 68.548 C 137.423 65.068,150.953 59.167,157.000 57.818 C 158.320 57.524,161.745 56.738,164.612 56.071 C 167.478 55.405,171.655 54.658,173.895 54.412 C 176.134 54.165,179.009 53.772,180.283 53.537 C 186.390 52.413,202.537 52.525,214.000 53.771 M209.800 116.687 C 205.708 117.078,197.634 119.040,194.600 120.381 C 194.160 120.576,191.640 121.689,189.000 122.855 C 186.360 124.021,183.480 125.457,182.600 126.045 C 181.720 126.633,179.380 128.122,177.400 129.355 C 171.769 132.862,161.010 142.580,157.181 147.618 C 156.422 148.617,155.037 150.327,154.105 151.418 C 145.115 161.932,132.586 192.904,135.453 197.523 C 137.809 201.317,155.494 204.273,167.825 202.934 C 179.190 201.699,199.156 194.697,205.200 189.826 C 205.530 189.560,207.240 188.467,209.000 187.397 C 228.487 175.548,244.809 153.638,244.906 139.200 C 245.003 124.691,229.578 114.799,209.800 116.687 M222.000 118.014 C 230.530 119.353,239.639 125.389,242.198 131.400 C 249.068 147.533,231.810 172.854,202.000 190.379 C 194.091 195.029,185.993 198.081,174.200 200.858 C 163.733 203.323,141.789 201.396,137.102 197.601 C 134.359 195.380,142.593 170.017,149.161 160.455 C 150.013 159.215,151.334 157.202,152.097 155.982 C 155.512 150.525,163.314 142.013,170.200 136.232 C 186.580 122.483,206.294 115.549,222.000 118.014 M250.400 244.200 C 245.809 244.992,238.842 247.085,236.509 248.374 C 235.518 248.921,227.970 252.400,227.774 252.400 C 227.376 252.400,213.854 259.292,210.000 261.460 C 208.570 262.264,205.330 263.961,202.800 265.230 C 200.270 266.499,196.760 268.407,195.000 269.470 C 193.240 270.532,190.630 271.922,189.200 272.557 C 187.770 273.193,185.430 274.349,184.000 275.126 C 182.570 275.903,179.884 277.321,178.031 278.277 C 173.732 280.496,173.553 280.654,173.852 281.946 C 174.356 284.114,177.699 285.749,185.800 287.790 C 188.220 288.399,190.470 289.038,190.801 289.210 C 191.751 289.703,200.950 291.122,206.000 291.554 C 211.416 292.017,222.024 291.527,226.200 290.621 C 227.740 290.287,229.375 290.011,229.833 290.007 C 231.287 289.995,240.122 287.287,245.200 285.297 C 248.286 284.087,249.568 283.394,252.884 281.137 C 253.480 280.732,254.077 280.400,254.212 280.400 C 255.636 280.400,264.149 272.255,266.850 268.309 C 277.459 252.806,269.356 240.929,250.400 244.200 M261.798 245.407 C 269.447 247.027,272.521 254.047,269.043 261.956 C 261.803 278.423,242.799 288.712,216.513 290.396 C 208.466 290.912,199.295 290.002,189.800 287.745 C 175.130 284.257,172.513 282.226,178.700 279.129 C 186.257 275.346,197.364 269.562,197.855 269.155 C 198.993 268.210,223.422 255.673,231.200 252.041 C 238.529 248.619,238.835 248.490,242.200 247.418 C 250.052 244.914,256.400 244.263,261.798 245.407 " stroke="none" fill="#ac743a" fill-rule="evenodd"></path><path id="path4" d="M178.400 28.021 C 174.550 28.426,169.682 29.037,167.583 29.379 C 165.483 29.720,163.200 30.000,162.509 30.000 C 161.818 30.000,160.745 30.207,160.126 30.459 C 159.507 30.711,157.740 31.149,156.200 31.431 C 154.660 31.713,152.590 32.206,151.600 32.526 C 150.610 32.847,148.450 33.506,146.800 33.992 C 141.950 35.420,134.343 38.262,132.400 39.372 C 131.410 39.937,129.970 40.684,129.200 41.030 C 125.286 42.793,124.003 43.435,121.800 44.733 C 120.480 45.512,118.680 46.726,117.800 47.433 C 116.920 48.139,115.570 49.002,114.800 49.350 C 109.903 51.567,97.451 62.819,91.524 70.384 C 90.052 72.263,88.265 74.480,87.553 75.311 C 86.117 76.986,85.254 78.332,83.521 81.600 C 82.880 82.810,81.828 84.610,81.184 85.600 C 80.540 86.590,79.891 87.670,79.741 88.000 C 79.592 88.330,79.167 89.050,78.798 89.600 C 77.813 91.065,74.083 100.654,73.118 104.200 C 72.879 105.080,72.539 105.986,72.364 106.214 C 72.189 106.441,71.865 107.701,71.644 109.014 C 71.423 110.326,70.892 113.290,70.463 115.600 C 68.195 127.824,68.436 143.364,71.015 151.171 C 71.337 152.145,71.600 153.449,71.600 154.068 C 71.600 155.221,73.306 160.546,74.262 162.378 C 74.555 162.940,74.796 163.709,74.798 164.087 C 74.801 164.968,78.422 173.761,79.539 175.600 C 80.007 176.370,80.577 177.430,80.806 177.956 C 81.035 178.481,81.667 179.440,82.211 180.086 C 82.755 180.733,83.200 181.473,83.201 181.731 C 83.202 182.490,89.191 191.266,91.500 193.893 C 91.995 194.456,92.400 195.064,92.400 195.245 C 92.400 195.425,93.588 196.794,95.040 198.286 C 96.493 199.779,98.952 202.305,100.506 203.900 C 102.061 205.495,103.464 206.800,103.624 206.800 C 103.785 206.800,105.089 207.956,106.523 209.368 C 109.479 212.281,109.155 211.042,109.953 222.466 C 110.163 225.472,110.542 228.318,110.795 228.791 C 111.048 229.264,111.349 231.304,111.464 233.325 C 111.579 235.346,112.016 238.036,112.436 239.302 C 112.856 240.567,113.200 242.250,113.200 243.041 C 113.200 243.832,113.459 245.046,113.775 245.740 C 114.383 247.072,115.418 250.128,117.758 257.504 C 118.670 260.378,120.135 263.708,121.806 266.704 C 125.572 273.460,125.594 274.118,122.067 274.634 C 121.040 274.784,119.354 275.236,118.320 275.640 C 117.286 276.043,115.126 276.559,113.520 276.787 C 111.914 277.015,109.520 277.375,108.200 277.586 C 100.250 278.860,88.078 277.802,82.940 275.391 C 82.246 275.066,81.416 274.800,81.093 274.800 C 80.771 274.800,80.079 274.465,79.554 274.055 C 79.029 273.646,77.574 272.734,76.321 272.029 C 72.212 269.718,64.533 261.351,62.528 257.000 C 62.223 256.340,61.634 255.260,61.218 254.600 C 60.802 253.940,59.882 251.701,59.173 249.624 C 58.464 247.547,57.567 245.297,57.180 244.624 C 56.794 243.951,56.356 242.817,56.208 242.105 C 55.582 239.098,51.462 238.327,46.400 240.272 C 45.190 240.736,43.390 241.329,42.400 241.589 C 41.410 241.849,39.340 242.422,37.800 242.863 C 36.260 243.304,34.226 243.862,33.281 244.104 C 29.476 245.077,28.797 247.161,30.600 252.323 C 31.150 253.897,31.600 255.452,31.600 255.779 C 31.600 257.006,33.535 262.029,36.386 268.200 C 36.995 269.520,37.784 271.604,38.138 272.831 C 38.492 274.058,39.236 275.731,39.791 276.549 C 40.346 277.367,40.800 278.141,40.800 278.270 C 40.800 278.527,45.303 286.308,48.398 291.400 C 49.468 293.160,50.846 295.551,51.462 296.714 C 52.077 297.876,53.260 299.534,54.090 300.398 C 54.921 301.262,55.600 302.061,55.600 302.173 C 55.600 302.627,62.202 311.515,63.744 313.137 C 64.655 314.095,67.380 316.967,69.800 319.519 C 76.855 326.959,77.457 327.527,84.400 333.293 C 86.710 335.211,89.176 337.370,89.881 338.090 C 90.586 338.811,92.026 339.850,93.081 340.400 C 94.136 340.950,96.371 342.409,98.047 343.641 C 99.722 344.874,102.749 346.854,104.773 348.041 C 106.796 349.229,108.965 350.503,109.592 350.873 C 110.219 351.243,111.494 352.098,112.426 352.773 C 113.358 353.448,114.285 354.000,114.486 354.000 C 114.853 354.000,118.129 355.539,120.000 356.589 C 122.005 357.715,124.438 358.800,124.958 358.800 C 125.252 358.800,125.921 359.131,126.446 359.536 C 126.971 359.940,128.120 360.468,129.000 360.707 C 129.880 360.947,132.400 361.893,134.600 362.809 C 139.354 364.789,146.520 367.200,147.649 367.200 C 148.091 367.200,148.794 367.383,149.211 367.606 C 149.628 367.829,151.192 368.259,152.685 368.560 C 154.178 368.862,157.560 369.642,160.200 370.294 C 169.142 372.503,171.393 372.949,175.000 373.227 C 176.980 373.380,180.877 373.715,183.661 373.972 C 196.958 375.200,226.874 373.252,231.521 370.855 C 231.895 370.663,232.920 370.384,233.800 370.235 C 234.680 370.087,236.210 369.713,237.200 369.405 C 238.190 369.097,241.070 368.374,243.600 367.799 C 246.130 367.223,249.820 366.202,251.800 365.528 C 257.972 363.430,262.917 361.600,263.368 361.248 C 263.605 361.062,264.326 360.784,264.968 360.630 C 265.611 360.476,266.580 360.002,267.122 359.575 C 267.664 359.149,268.351 358.800,268.649 358.800 C 268.946 358.800,271.127 357.820,273.495 356.623 C 275.863 355.426,278.250 354.253,278.800 354.017 C 279.350 353.782,281.014 352.826,282.498 351.894 C 283.982 350.962,286.322 349.495,287.698 348.634 C 292.273 345.771,294.587 344.207,295.297 343.500 C 295.684 343.115,296.175 342.800,296.389 342.800 C 296.893 342.800,303.701 337.635,304.120 336.935 C 304.296 336.641,304.636 336.400,304.875 336.400 C 305.272 336.400,309.953 332.694,311.065 331.500 C 311.321 331.225,312.637 330.010,313.990 328.800 C 318.682 324.602,319.879 323.393,320.624 322.100 C 321.036 321.385,321.514 320.800,321.686 320.800 C 322.947 320.800,332.661 309.592,336.585 303.610 C 337.959 301.514,339.475 299.452,339.954 299.027 C 340.433 298.601,341.398 297.251,342.099 296.027 C 342.799 294.802,344.212 292.532,345.237 290.983 C 346.263 289.433,347.598 287.183,348.203 285.983 C 348.808 284.782,349.640 283.322,350.051 282.738 C 350.463 282.154,350.800 281.508,350.800 281.302 C 350.800 281.096,351.668 279.483,352.729 277.718 C 353.790 275.953,354.853 273.989,355.092 273.354 C 355.330 272.719,356.187 270.580,356.995 268.600 C 357.803 266.620,358.648 264.382,358.872 263.626 C 359.095 262.870,359.517 261.880,359.810 261.426 C 360.102 260.972,360.472 259.880,360.632 259.000 C 360.792 258.120,361.538 255.600,362.290 253.400 C 365.513 243.968,366.277 241.233,366.994 236.536 C 367.325 234.371,367.767 231.610,367.977 230.400 C 368.186 229.190,368.541 226.670,368.766 224.800 C 368.990 222.930,369.351 220.441,369.568 219.269 C 370.858 212.287,370.872 187.652,369.589 182.600 C 369.365 181.720,368.919 178.497,368.597 175.437 C 367.764 167.522,364.781 154.279,362.822 149.800 C 362.629 149.360,361.997 147.380,361.417 145.400 C 360.836 143.420,360.109 141.260,359.800 140.600 C 359.491 139.940,359.054 138.679,358.830 137.797 C 358.605 136.916,357.942 135.206,357.357 133.997 C 356.772 132.789,355.703 130.450,354.981 128.800 C 354.260 127.150,352.847 124.270,351.842 122.400 C 350.836 120.530,349.351 117.650,348.541 116.000 C 347.731 114.350,346.192 111.740,345.119 110.200 C 344.047 108.660,342.250 105.960,341.125 104.200 C 340.001 102.440,338.296 100.124,337.337 99.053 C 335.560 97.069,333.204 93.786,333.194 93.280 C 333.191 93.126,331.910 91.560,330.348 89.800 C 328.785 88.040,327.213 86.150,326.855 85.600 C 326.496 85.050,325.767 84.240,325.233 83.800 C 324.700 83.360,323.440 82.110,322.432 81.023 C 316.289 74.393,307.857 66.717,304.009 64.250 C 303.023 63.618,302.032 62.886,301.808 62.624 C 300.912 61.575,297.297 58.857,295.600 57.956 C 293.696 56.945,292.962 56.444,289.293 53.658 C 288.032 52.701,285.380 51.120,283.400 50.147 C 281.420 49.174,278.453 47.551,276.806 46.542 C 275.160 45.532,272.370 44.119,270.606 43.402 C 265.070 41.150,264.435 40.875,259.174 38.444 C 258.169 37.980,257.157 37.600,256.924 37.600 C 256.692 37.600,253.494 36.610,249.818 35.400 C 246.142 34.190,242.796 33.200,242.382 33.200 C 241.968 33.200,240.768 32.862,239.715 32.448 C 238.662 32.035,236.828 31.564,235.639 31.403 C 234.450 31.241,232.920 30.880,232.239 30.602 C 231.558 30.323,229.740 29.971,228.200 29.820 C 226.660 29.669,224.729 29.372,223.910 29.160 C 216.629 27.277,191.461 26.648,178.400 28.021 M206.725 28.404 C 235.955 30.414,268.360 40.554,287.248 53.600 C 288.044 54.150,290.294 55.665,292.248 56.967 C 294.201 58.268,296.894 60.158,298.231 61.167 C 299.568 62.175,301.421 63.540,302.350 64.200 C 308.489 68.565,322.513 81.876,327.328 87.909 C 328.509 89.389,329.789 90.860,330.172 91.177 C 330.554 91.494,331.427 92.574,332.111 93.577 C 332.795 94.580,335.165 97.860,337.377 100.867 C 345.257 111.576,351.114 122.068,356.862 135.773 C 358.764 140.306,364.455 157.803,365.003 160.800 C 365.144 161.570,365.594 163.730,366.004 165.600 C 367.146 170.810,367.645 174.093,368.221 180.200 C 368.511 183.280,368.956 187.918,369.210 190.507 C 370.655 205.240,367.718 233.137,363.263 247.000 C 362.627 248.980,361.613 252.220,361.011 254.200 C 359.708 258.482,358.765 261.093,356.965 265.400 C 356.229 267.160,355.248 269.590,354.783 270.800 C 352.396 277.026,342.969 293.399,338.317 299.400 C 337.464 300.500,335.975 302.612,335.009 304.093 C 332.664 307.687,328.354 312.838,323.215 318.190 C 310.259 331.684,303.120 337.498,285.781 348.675 C 281.417 351.488,264.935 360.000,263.853 360.000 C 263.704 360.000,261.561 360.787,259.091 361.749 C 256.621 362.711,253.340 363.898,251.800 364.387 C 250.260 364.876,248.370 365.513,247.600 365.802 C 246.156 366.344,242.961 367.156,237.400 368.393 C 235.640 368.785,232.220 369.570,229.800 370.137 C 218.161 372.865,190.113 374.356,179.677 372.801 C 171.181 371.535,166.518 370.715,162.600 369.797 C 160.180 369.230,157.210 368.583,156.000 368.360 C 149.937 367.240,139.381 363.862,133.000 361.000 C 132.340 360.704,131.260 360.336,130.600 360.182 C 129.124 359.839,113.534 352.176,110.101 350.106 C 104.647 346.819,91.294 337.816,89.558 336.255 C 88.546 335.345,86.487 333.610,84.984 332.400 C 83.481 331.190,81.778 329.750,81.198 329.200 C 80.619 328.650,79.077 327.210,77.773 325.999 C 75.572 323.958,69.240 317.417,64.642 312.434 C 62.772 310.408,59.593 306.275,56.924 302.400 C 56.243 301.410,55.297 300.158,54.824 299.618 C 54.075 298.763,52.558 296.392,47.440 288.083 C 44.780 283.764,40.128 274.665,38.195 270.000 C 34.271 260.530,33.682 258.989,32.616 255.400 C 32.028 253.420,31.289 251.074,30.974 250.187 C 29.863 247.062,30.732 245.985,35.468 244.616 C 44.211 242.090,48.501 240.774,49.188 240.406 C 50.063 239.938,53.183 239.871,53.852 240.306 C 54.262 240.573,55.630 243.745,58.613 251.343 C 68.029 275.333,90.470 284.500,119.800 276.336 C 127.437 274.211,127.345 274.376,124.058 268.667 C 121.251 263.793,119.974 261.074,118.856 257.600 C 118.396 256.170,117.119 252.257,116.018 248.904 C 113.061 239.895,111.409 230.228,110.601 217.200 C 110.202 210.773,110.458 211.296,105.689 207.170 C 98.405 200.868,93.610 195.426,87.104 186.075 C 85.621 183.944,84.406 182.052,84.404 181.872 C 84.402 181.692,83.889 180.792,83.265 179.872 C 81.482 177.246,79.014 172.137,77.024 166.956 C 76.019 164.340,74.845 161.300,74.415 160.200 C 73.523 157.921,72.014 151.675,70.935 145.800 C 69.916 140.252,69.877 123.283,70.873 118.800 C 71.239 117.150,71.652 114.810,71.789 113.600 C 72.515 107.205,77.770 93.078,81.981 86.200 C 82.924 84.660,84.213 82.453,84.846 81.295 C 87.935 75.640,98.594 63.299,105.051 57.902 C 110.831 53.071,113.227 51.252,115.672 49.841 C 117.062 49.038,119.638 47.468,121.396 46.351 C 128.542 41.809,140.698 36.715,151.800 33.610 C 166.213 29.579,190.433 27.284,206.725 28.404 M188.800 53.624 C 180.590 54.004,167.781 55.713,163.600 56.986 C 162.610 57.288,160.360 57.840,158.600 58.213 C 151.693 59.677,138.710 65.194,132.874 69.145 C 131.623 69.992,130.018 70.984,129.306 71.349 C 117.862 77.230,102.431 97.363,98.608 111.400 C 98.009 113.600,97.271 116.161,96.967 117.092 C 96.134 119.645,95.101 130.570,95.388 133.800 C 96.033 141.079,96.533 144.495,97.464 148.000 C 99.284 154.846,101.995 161.929,103.860 164.711 C 104.344 165.433,105.150 166.871,105.652 167.908 C 107.775 172.292,113.907 179.522,114.580 178.433 C 114.932 177.862,117.239 171.491,117.800 169.539 C 118.414 167.402,120.097 162.746,120.872 161.038 C 128.613 143.993,142.049 126.751,155.984 115.979 C 156.966 115.221,158.316 114.092,158.984 113.471 C 159.653 112.851,160.739 112.058,161.398 111.711 C 162.056 111.363,163.496 110.404,164.598 109.580 C 170.408 105.232,182.872 99.032,189.535 97.175 C 208.456 91.902,219.790 91.253,231.000 94.800 C 232.320 95.217,234.390 95.851,235.600 96.209 C 248.877 100.132,262.248 112.744,266.348 125.211 C 270.821 138.815,267.066 159.235,257.758 171.924 C 249.971 182.540,248.530 184.287,243.004 189.801 C 227.613 205.160,210.832 215.384,189.800 222.215 C 175.099 226.990,156.672 228.143,142.507 225.174 C 138.017 224.233,137.246 224.215,136.928 225.044 C 136.146 227.081,141.543 247.319,144.238 252.453 C 144.657 253.252,145.494 254.887,146.098 256.087 C 148.021 259.907,151.120 264.000,152.090 264.000 C 152.568 264.000,155.128 262.941,157.780 261.647 C 172.037 254.688,173.716 253.836,189.800 245.405 C 202.228 238.890,208.728 235.539,212.800 233.548 C 215.110 232.419,219.678 230.169,222.951 228.548 C 226.225 226.926,229.138 225.600,229.425 225.600 C 229.713 225.600,232.345 224.810,235.274 223.845 C 260.936 215.387,281.101 220.933,291.119 239.204 C 301.555 258.236,291.222 284.715,267.282 300.288 C 259.423 305.401,245.724 311.113,238.200 312.416 C 236.880 312.644,234.540 313.080,233.000 313.385 C 223.570 315.251,208.863 315.678,198.200 314.396 C 194.215 313.916,182.131 311.728,181.577 311.386 C 181.417 311.287,180.141 310.951,178.743 310.639 C 172.257 309.194,155.688 301.240,149.545 296.623 C 146.409 294.265,146.106 294.283,137.521 297.328 C 129.708 300.099,117.503 303.074,110.000 304.035 C 108.350 304.247,103.895 304.450,100.100 304.488 C 95.414 304.534,93.200 304.696,93.200 304.993 C 93.200 306.327,103.832 315.750,110.584 320.400 C 111.382 320.950,112.883 322.049,113.918 322.843 C 117.765 325.791,129.695 332.177,139.800 336.698 C 143.170 338.205,158.749 343.430,161.000 343.808 C 161.880 343.955,163.500 344.325,164.600 344.629 C 180.664 349.076,212.895 348.750,231.800 343.951 C 268.410 334.658,301.127 311.283,320.616 280.498 C 324.779 273.922,325.655 272.458,326.538 270.600 C 327.061 269.500,328.587 266.344,329.929 263.588 C 335.391 252.371,341.247 233.499,342.213 224.000 C 342.359 222.570,342.734 219.780,343.047 217.800 C 345.817 200.298,342.758 170.919,336.384 153.800 C 329.234 134.595,322.377 121.939,312.221 109.200 C 309.719 106.062,309.048 105.309,302.509 98.300 C 297.466 92.896,285.787 82.891,281.344 80.169 C 280.654 79.746,277.954 77.976,275.344 76.237 C 270.464 72.983,255.787 65.296,252.467 64.256 C 251.440 63.934,249.340 63.195,247.800 62.615 C 239.729 59.570,230.543 56.999,224.800 56.175 C 223.810 56.033,222.010 55.678,220.800 55.385 C 217.971 54.701,198.643 53.074,195.800 53.280 C 195.360 53.312,192.210 53.467,188.800 53.624 M204.041 54.803 C 208.529 55.025,213.550 55.460,215.200 55.770 C 216.850 56.079,219.280 56.449,220.600 56.591 C 221.920 56.733,223.990 57.095,225.200 57.394 C 228.678 58.254,234.461 59.527,236.083 59.790 C 236.899 59.922,238.069 60.292,238.683 60.612 C 239.297 60.933,240.105 61.196,240.478 61.198 C 240.850 61.199,242.712 61.827,244.614 62.594 C 246.516 63.361,248.821 64.179,249.736 64.411 C 252.339 65.072,269.962 73.509,271.400 74.783 C 272.127 75.427,273.014 75.993,277.461 78.653 C 278.245 79.122,279.482 80.067,280.209 80.753 C 280.936 81.439,281.645 82.000,281.785 82.000 C 282.232 82.000,289.870 87.918,292.885 90.600 C 294.488 92.027,295.949 93.195,296.131 93.197 C 296.572 93.201,298.800 95.445,298.800 95.886 C 298.800 96.077,300.340 97.737,302.223 99.576 C 304.105 101.414,306.756 104.287,308.114 105.959 C 309.472 107.632,311.088 109.540,311.706 110.200 C 312.324 110.860,313.660 112.660,314.676 114.200 C 315.692 115.740,317.216 117.835,318.062 118.856 C 318.908 119.876,319.600 120.847,319.600 121.014 C 319.600 121.181,320.259 122.309,321.063 123.522 C 323.026 126.479,324.529 129.193,326.201 132.800 C 326.966 134.450,327.774 136.070,327.997 136.400 C 328.220 136.730,328.581 137.450,328.801 138.000 C 329.020 138.550,329.381 139.270,329.603 139.600 C 330.250 140.564,330.649 141.552,332.184 146.000 C 332.981 148.310,334.076 151.118,334.617 152.240 C 335.158 153.362,335.601 154.532,335.602 154.840 C 335.604 155.148,335.867 155.903,336.188 156.517 C 336.508 157.131,336.887 158.301,337.030 159.117 C 337.173 159.933,337.542 161.002,337.850 161.493 C 338.157 161.984,338.563 163.424,338.750 164.693 C 338.938 165.962,339.477 168.980,339.949 171.400 C 340.420 173.820,340.977 176.700,341.187 177.800 C 342.752 186.009,343.209 207.187,342.024 216.600 C 340.784 226.455,340.299 229.694,339.571 233.000 C 338.644 237.211,336.944 242.972,336.208 244.400 C 335.924 244.950,335.559 246.021,335.397 246.780 C 335.234 247.538,334.569 249.428,333.918 250.980 C 333.267 252.531,332.563 254.500,332.353 255.354 C 332.143 256.209,330.654 259.629,329.043 262.954 C 327.432 266.280,325.974 269.450,325.802 270.000 C 325.631 270.550,324.976 271.751,324.347 272.670 C 323.718 273.588,323.028 274.758,322.814 275.270 C 322.600 275.781,321.886 276.920,321.227 277.800 C 320.568 278.680,318.273 281.990,316.129 285.155 C 313.984 288.320,311.767 291.380,311.203 291.955 C 310.639 292.530,308.563 294.980,306.590 297.400 C 304.616 299.820,302.289 302.430,301.417 303.200 C 299.481 304.910,294.239 309.741,292.600 311.326 C 291.106 312.770,285.939 316.735,283.797 318.080 C 282.916 318.634,281.746 319.466,281.197 319.929 C 280.649 320.392,279.660 321.198,279.000 321.718 C 277.539 322.871,270.422 327.059,269.015 327.594 C 268.457 327.806,267.999 328.120,267.999 328.290 C 267.997 328.643,265.431 330.005,260.200 332.433 C 258.220 333.351,256.330 334.327,256.000 334.601 C 255.670 334.875,254.708 335.321,253.861 335.593 C 253.015 335.865,251.845 336.337,251.261 336.641 C 250.678 336.946,249.930 337.197,249.600 337.200 C 249.270 337.203,248.485 337.473,247.856 337.801 C 247.227 338.129,245.787 338.658,244.656 338.976 C 239.325 340.475,233.614 342.183,231.800 342.821 C 228.595 343.949,226.824 344.257,214.200 345.880 C 201.765 347.479,178.919 346.734,168.800 344.400 C 166.930 343.969,164.680 343.509,163.800 343.378 C 162.920 343.247,161.729 342.961,161.152 342.743 C 160.576 342.525,159.046 342.110,157.752 341.820 C 156.459 341.531,154.410 340.895,153.200 340.407 C 151.990 339.919,150.100 339.294,149.000 339.018 C 146.065 338.283,141.894 336.747,141.169 336.134 C 140.821 335.840,140.306 335.600,140.025 335.600 C 139.743 335.600,137.237 334.495,134.456 333.144 C 126.985 329.515,125.463 328.735,124.800 328.195 C 124.470 327.927,122.580 326.849,120.600 325.801 C 117.058 323.926,115.270 322.801,113.934 321.605 C 112.514 320.335,111.775 319.778,109.371 318.166 C 104.736 315.058,95.180 306.687,95.688 306.179 C 95.762 306.105,97.977 306.009,100.611 305.966 C 103.245 305.923,106.390 305.662,107.600 305.386 C 108.810 305.109,110.880 304.774,112.200 304.640 C 114.414 304.416,119.961 303.320,123.800 302.347 C 124.680 302.124,126.840 301.601,128.600 301.186 C 130.360 300.771,133.960 299.698,136.600 298.802 C 146.605 295.406,146.276 295.429,149.461 297.899 C 150.528 298.726,152.300 299.832,153.400 300.356 C 154.500 300.880,156.390 301.956,157.600 302.746 C 159.509 303.993,166.491 307.600,166.996 307.600 C 167.095 307.600,169.673 308.577,172.727 309.771 C 175.780 310.966,179.431 312.137,180.839 312.374 C 182.248 312.611,184.390 313.063,185.600 313.378 C 197.551 316.492,218.419 317.218,230.600 314.943 C 232.360 314.615,234.700 314.252,235.800 314.137 C 237.597 313.949,240.871 313.095,244.200 311.946 C 244.860 311.719,246.210 311.299,247.200 311.013 C 248.190 310.727,250.182 309.954,251.626 309.296 C 253.071 308.638,255.231 307.811,256.426 307.458 C 257.622 307.105,259.230 306.424,260.000 305.944 C 260.770 305.463,262.390 304.551,263.600 303.916 C 264.810 303.281,265.987 302.518,266.215 302.220 C 266.444 301.922,267.524 301.186,268.615 300.584 C 277.545 295.661,287.673 284.036,292.302 273.400 C 293.877 269.781,294.800 267.000,294.800 265.878 C 294.800 265.386,295.160 263.685,295.600 262.097 C 297.344 255.802,295.605 244.832,291.734 237.715 C 288.903 232.509,280.073 224.312,276.296 223.383 C 275.689 223.234,275.097 222.956,274.980 222.767 C 273.085 219.702,255.184 217.877,245.600 219.772 C 242.168 220.451,235.739 222.287,235.000 222.800 C 234.780 222.953,232.980 223.568,231.000 224.166 C 227.485 225.229,223.087 227.107,219.020 229.279 C 217.909 229.873,214.930 231.377,212.400 232.622 C 204.154 236.680,195.821 241.006,192.329 243.041 C 191.158 243.724,189.570 244.489,188.800 244.741 C 188.030 244.994,186.770 245.589,186.000 246.064 C 185.230 246.538,183.430 247.546,182.000 248.304 C 180.570 249.062,179.116 249.934,178.769 250.241 C 178.421 250.549,177.915 250.800,177.643 250.800 C 176.965 250.800,173.139 252.422,172.400 253.022 C 172.070 253.290,170.726 254.077,169.414 254.770 C 168.102 255.464,166.737 256.295,166.382 256.616 C 166.027 256.937,165.531 257.200,165.279 257.200 C 164.776 257.200,163.458 257.763,157.236 260.637 C 152.934 262.624,151.694 262.868,151.118 261.839 C 150.933 261.509,150.561 261.001,150.291 260.709 C 149.175 259.504,147.951 257.512,146.989 255.337 C 146.427 254.067,145.728 252.751,145.434 252.414 C 145.141 252.076,144.679 251.108,144.407 250.261 C 144.135 249.415,143.663 248.245,143.359 247.661 C 143.054 247.078,142.804 246.325,142.802 245.989 C 142.801 245.653,142.528 244.990,142.196 244.516 C 141.864 244.042,141.336 242.427,141.022 240.927 C 140.707 239.427,140.083 236.764,139.634 235.008 C 139.184 233.253,138.698 230.508,138.553 228.908 L 138.290 226.000 139.966 226.000 C 140.888 226.000,142.848 226.265,144.321 226.588 C 153.012 228.496,172.477 228.047,180.400 225.755 C 181.610 225.405,183.500 224.937,184.600 224.715 C 185.700 224.493,187.326 224.061,188.213 223.756 C 189.101 223.450,190.098 223.200,190.429 223.200 C 190.760 223.200,191.744 222.832,192.615 222.382 C 193.487 221.933,195.100 221.372,196.200 221.136 C 197.300 220.900,198.380 220.572,198.600 220.406 C 198.820 220.241,200.002 219.737,201.226 219.286 C 205.776 217.611,218.318 210.935,223.200 207.591 C 223.530 207.365,224.536 206.689,225.436 206.090 C 228.562 204.007,237.799 196.591,239.195 195.042 C 239.968 194.185,241.050 193.105,241.600 192.642 C 243.321 191.193,246.935 187.505,249.213 184.874 C 251.156 182.630,252.344 181.057,254.706 177.600 C 255.082 177.050,255.592 176.420,255.841 176.200 C 256.089 175.980,256.992 174.889,257.846 173.777 C 259.288 171.899,260.035 170.499,264.401 161.500 C 271.513 146.840,271.051 128.007,263.295 116.438 C 262.473 115.211,261.620 113.808,261.400 113.320 C 260.746 111.869,256.100 107.297,251.619 103.695 C 250.178 102.538,248.784 101.414,248.520 101.198 C 247.160 100.087,238.005 95.840,236.037 95.408 C 235.352 95.258,234.299 94.890,233.696 94.591 C 230.871 93.191,225.299 91.930,221.200 91.763 C 218.890 91.668,216.460 91.498,215.800 91.385 C 214.056 91.085,203.901 92.319,200.400 93.257 C 192.565 95.355,186.887 97.051,184.326 98.061 C 183.295 98.468,182.264 98.800,182.034 98.800 C 181.538 98.800,175.034 101.946,173.600 102.880 C 172.380 103.673,168.569 105.819,167.200 106.482 C 166.650 106.749,165.390 107.621,164.400 108.421 C 163.410 109.220,161.790 110.346,160.800 110.921 C 159.810 111.497,158.370 112.555,157.600 113.273 C 156.830 113.991,155.580 115.007,154.823 115.530 C 154.065 116.053,152.817 117.048,152.049 117.740 C 147.676 121.684,145.733 123.529,144.823 124.600 C 144.262 125.260,142.632 127.070,141.202 128.621 C 136.631 133.577,132.565 138.540,131.387 140.600 C 130.758 141.700,129.649 143.339,128.922 144.241 C 128.195 145.144,127.595 146.044,127.589 146.241 C 127.582 146.439,126.859 147.680,125.982 149.000 C 124.218 151.653,121.838 156.425,118.998 163.000 C 118.618 163.880,117.883 166.011,117.364 167.735 C 116.846 169.459,116.069 171.619,115.638 172.535 C 115.207 173.451,114.749 174.695,114.620 175.300 C 114.072 177.862,110.602 174.482,106.572 167.461 C 105.707 165.955,104.687 164.245,104.304 163.661 C 103.922 163.078,103.490 162.330,103.345 162.000 C 101.757 158.382,100.143 153.537,99.148 149.400 C 98.725 147.640,97.995 145.120,97.527 143.800 C 96.760 141.636,96.673 140.515,96.647 132.400 L 96.617 123.400 98.305 116.800 C 99.233 113.170,100.290 109.300,100.654 108.200 C 102.074 103.912,107.306 94.121,109.320 91.981 C 110.101 91.153,111.248 89.705,111.869 88.764 C 114.336 85.029,128.030 72.400,129.613 72.400 C 129.917 72.400,131.184 71.628,133.649 69.941 C 136.480 68.004,146.568 62.955,148.327 62.596 C 149.057 62.447,150.137 62.073,150.727 61.765 C 151.317 61.457,152.034 61.204,152.320 61.202 C 152.606 61.201,153.365 60.928,154.008 60.596 C 154.993 60.086,159.860 58.923,168.400 57.156 C 169.390 56.952,171.885 56.595,173.945 56.365 C 176.005 56.135,178.165 55.752,178.745 55.516 C 179.325 55.279,183.310 54.962,187.600 54.811 C 191.890 54.660,195.509 54.506,195.641 54.468 C 195.774 54.431,199.554 54.581,204.041 54.803 M207.200 118.780 C 191.373 121.096,170.515 133.947,158.488 148.793 C 154.573 153.627,147.600 163.483,147.600 164.184 C 147.600 164.291,146.961 165.689,146.180 167.289 C 141.001 177.905,136.047 194.479,137.425 196.583 C 138.798 198.677,148.618 201.039,157.600 201.434 C 169.888 201.975,182.121 199.236,195.477 192.954 C 199.566 191.030,211.801 183.863,212.896 182.750 C 213.279 182.360,214.989 180.976,216.696 179.674 C 219.479 177.551,225.536 171.693,230.007 166.800 C 233.304 163.191,236.771 157.991,238.938 153.400 C 239.561 152.080,240.212 150.724,240.385 150.386 C 246.913 137.623,241.196 124.902,226.600 119.712 C 223.542 118.625,212.039 118.072,207.200 118.780 M223.791 120.020 C 228.011 121.023,231.594 122.740,233.395 124.623 C 233.618 124.856,234.590 125.550,235.556 126.166 C 241.540 129.981,243.804 140.432,240.199 147.600 C 239.923 148.150,239.564 149.213,239.403 149.963 C 239.241 150.713,238.331 152.603,237.381 154.163 C 236.431 155.723,234.911 158.300,234.004 159.890 C 233.097 161.479,231.150 164.072,229.678 165.652 C 224.056 171.684,216.999 178.458,215.691 179.079 C 214.940 179.435,213.398 180.554,212.263 181.566 C 211.128 182.578,209.390 183.842,208.400 184.376 C 207.410 184.909,206.150 185.648,205.600 186.019 C 195.696 192.689,182.895 197.855,172.800 199.256 C 171.370 199.454,168.995 199.793,167.523 200.008 C 162.701 200.714,151.873 200.249,147.400 199.144 C 146.520 198.927,144.747 198.509,143.459 198.216 C 140.332 197.503,138.400 196.431,138.401 195.409 C 138.406 192.558,140.137 185.236,141.997 180.200 C 142.404 179.100,142.865 177.750,143.022 177.200 C 143.179 176.650,143.554 175.845,143.854 175.411 C 144.154 174.977,144.400 174.381,144.400 174.086 C 144.400 173.792,144.871 172.527,145.446 171.275 C 148.686 164.231,149.328 162.936,149.900 162.297 C 150.246 161.911,150.725 161.267,150.964 160.866 C 152.384 158.492,155.538 154.034,157.315 151.889 C 158.449 150.520,159.562 149.160,159.788 148.867 C 160.776 147.588,169.197 139.200,169.494 139.200 C 169.674 139.200,171.167 137.941,172.811 136.403 C 174.455 134.865,176.150 133.492,176.577 133.352 C 177.462 133.062,180.959 130.698,182.285 129.493 C 183.662 128.242,184.526 127.779,188.600 126.114 C 189.920 125.574,191.540 124.882,192.200 124.576 C 202.898 119.608,214.818 117.889,223.791 120.020 M248.800 246.378 C 241.547 247.847,231.984 251.885,217.000 259.807 C 215.020 260.854,210.970 262.966,208.000 264.500 C 205.030 266.035,201.430 267.963,200.000 268.784 C 198.570 269.606,196.860 270.555,196.200 270.893 C 195.540 271.231,193.200 272.445,191.000 273.591 C 188.800 274.737,184.693 276.844,181.874 278.273 C 176.689 280.902,175.840 281.631,176.845 282.592 C 177.727 283.435,183.140 285.511,186.200 286.181 C 187.740 286.517,189.990 287.041,191.200 287.344 C 215.171 293.346,244.777 287.811,258.800 274.704 C 277.155 257.548,271.584 241.767,248.800 246.378 M261.461 247.000 C 269.375 247.829,270.926 259.878,264.059 267.174 C 263.321 267.958,262.442 269.132,262.105 269.784 C 260.932 272.052,255.762 276.544,251.625 278.888 C 245.653 282.273,242.041 283.780,236.563 285.175 C 234.122 285.796,231.775 286.492,231.348 286.721 C 230.920 286.950,228.799 287.335,226.635 287.576 C 224.471 287.817,222.556 288.104,222.380 288.213 C 221.173 288.958,206.984 289.096,204.352 288.387 C 203.494 288.156,200.588 287.718,197.896 287.415 C 195.203 287.111,192.190 286.599,191.200 286.278 C 190.210 285.956,188.320 285.494,187.000 285.252 C 183.568 284.621,178.022 282.408,178.268 281.767 C 178.471 281.238,185.289 277.200,185.980 277.200 C 186.522 277.200,199.729 270.437,199.988 270.027 C 200.104 269.842,200.830 269.400,201.600 269.045 C 202.370 268.690,203.720 267.988,204.600 267.484 C 206.863 266.188,209.000 265.064,212.000 263.591 C 213.430 262.888,216.760 261.173,219.400 259.778 C 227.734 255.375,235.655 251.600,236.560 251.600 C 236.814 251.600,238.315 250.980,239.895 250.223 C 241.476 249.466,243.790 248.657,245.039 248.427 C 246.288 248.196,247.519 247.833,247.774 247.621 C 248.929 246.663,255.430 246.368,261.461 247.000 " stroke="none" fill="#6b3d1a" fill-rule="evenodd"></path></g></svg>